<svg height="288pt" version="1.1" viewBox="0 0 432 288" width="432pt" xmlns="http://www.w3.org/2000/svg" xmlns:xlink="http://www.w3.org/1999/xlink">
 <defs>
  <style type="text/css">
*{stroke-linecap:butt;stroke-linejoin:round;}
  </style>
 </defs>
 <g id="figure_1">
  <g id="patch_1">
   <path d="M 0 288 
L 432 288 
L 432 0 
L 0 0 
z
" style="fill:#f0f0f0;"/>
  </g>
  <g id="axes_1">
   <g id="patch_2">
    <path d="M 34.56 267.84 
L 410.4 267.84 
L 410.4 34.56 
L 34.56 34.56 
z
" style="fill:#f0f0f0;"/>
   </g>
   <g id="matplotlib.axis_1">
    <g id="xtick_1">
     <g id="line2d_1">
      <path clip-path="url(#p281c170695)" d="M 34.56 267.84 
L 34.56 34.56 
" style="fill:none;stroke:#cbcbcb;"/>
     </g>
     <g id="line2d_2"/>
     <g id="text_1">
      <!-- −30 -->
      <defs>
       <path d="M 10.59375 35.5 
L 73.1875 35.5 
L 73.1875 27.203125 
L 10.59375 27.203125 
z
" id="DejaVuSans-8722"/>
       <path d="M 40.578125 39.3125 
Q 47.65625 37.796875 51.625 33 
Q 55.609375 28.21875 55.609375 21.1875 
Q 55.609375 10.40625 48.1875 4.484375 
Q 40.765625 -1.421875 27.09375 -1.421875 
Q 22.515625 -1.421875 17.65625 -0.515625 
Q 12.796875 0.390625 7.625 2.203125 
L 7.625 11.71875 
Q 11.71875 9.328125 16.59375 8.109375 
Q 21.484375 6.890625 26.8125 6.890625 
Q 36.078125 6.890625 40.9375 10.546875 
Q 45.796875 14.203125 45.796875 21.1875 
Q 45.796875 27.640625 41.28125 31.265625 
Q 36.765625 34.90625 28.71875 34.90625 
L 20.21875 34.90625 
L 20.21875 43.015625 
L 29.109375 43.015625 
Q 36.375 43.015625 40.234375 45.921875 
Q 44.09375 48.828125 44.09375 54.296875 
Q 44.09375 59.90625 40.109375 62.90625 
Q 36.140625 65.921875 28.71875 65.921875 
Q 24.65625 65.921875 20.015625 65.03125 
Q 15.375 64.15625 9.8125 62.3125 
L 9.8125 71.09375 
Q 15.4375 72.65625 20.34375 73.4375 
Q 25.25 74.21875 29.59375 74.21875 
Q 40.828125 74.21875 47.359375 69.109375 
Q 53.90625 64.015625 53.90625 55.328125 
Q 53.90625 49.265625 50.4375 45.09375 
Q 46.96875 40.921875 40.578125 39.3125 
z
" id="DejaVuSans-51"/>
       <path d="M 31.78125 66.40625 
Q 24.171875 66.40625 20.328125 58.90625 
Q 16.5 51.421875 16.5 36.375 
Q 16.5 21.390625 20.328125 13.890625 
Q 24.171875 6.390625 31.78125 6.390625 
Q 39.453125 6.390625 43.28125 13.890625 
Q 47.125 21.390625 47.125 36.375 
Q 47.125 51.421875 43.28125 58.90625 
Q 39.453125 66.40625 31.78125 66.40625 
z
M 31.78125 74.21875 
Q 44.046875 74.21875 50.515625 64.515625 
Q 56.984375 54.828125 56.984375 36.375 
Q 56.984375 17.96875 50.515625 8.265625 
Q 44.046875 -1.421875 31.78125 -1.421875 
Q 19.53125 -1.421875 13.0625 8.265625 
Q 6.59375 17.96875 6.59375 36.375 
Q 6.59375 54.828125 13.0625 64.515625 
Q 19.53125 74.21875 31.78125 74.21875 
z
" id="DejaVuSans-48"/>
      </defs>
      <g transform="translate(19.786719 281.977813)scale(0.14 -0.14)">
       <use xlink:href="#DejaVuSans-8722"/>
       <use x="83.789062" xlink:href="#DejaVuSans-51"/>
       <use x="147.412109" xlink:href="#DejaVuSans-48"/>
      </g>
     </g>
    </g>
    <g id="xtick_2">
     <g id="line2d_3">
      <path clip-path="url(#p281c170695)" d="M 97.2 267.84 
L 97.2 34.56 
" style="fill:none;stroke:#cbcbcb;"/>
     </g>
     <g id="line2d_4"/>
     <g id="text_2">
      <!-- −20 -->
      <defs>
       <path d="M 19.1875 8.296875 
L 53.609375 8.296875 
L 53.609375 0 
L 7.328125 0 
L 7.328125 8.296875 
Q 12.9375 14.109375 22.625 23.890625 
Q 32.328125 33.6875 34.8125 36.53125 
Q 39.546875 41.84375 41.421875 45.53125 
Q 43.3125 49.21875 43.3125 52.78125 
Q 43.3125 58.59375 39.234375 62.25 
Q 35.15625 65.921875 28.609375 65.921875 
Q 23.96875 65.921875 18.8125 64.3125 
Q 13.671875 62.703125 7.8125 59.421875 
L 7.8125 69.390625 
Q 13.765625 71.78125 18.9375 73 
Q 24.125 74.21875 28.421875 74.21875 
Q 39.75 74.21875 46.484375 68.546875 
Q 53.21875 62.890625 53.21875 53.421875 
Q 53.21875 48.921875 51.53125 44.890625 
Q 49.859375 40.875 45.40625 35.40625 
Q 44.1875 33.984375 37.640625 27.21875 
Q 31.109375 20.453125 19.1875 8.296875 
z
" id="DejaVuSans-50"/>
      </defs>
      <g transform="translate(82.426719 281.977813)scale(0.14 -0.14)">
       <use xlink:href="#DejaVuSans-8722"/>
       <use x="83.789062" xlink:href="#DejaVuSans-50"/>
       <use x="147.412109" xlink:href="#DejaVuSans-48"/>
      </g>
     </g>
    </g>
    <g id="xtick_3">
     <g id="line2d_5">
      <path clip-path="url(#p281c170695)" d="M 159.84 267.84 
L 159.84 34.56 
" style="fill:none;stroke:#cbcbcb;"/>
     </g>
     <g id="line2d_6"/>
     <g id="text_3">
      <!-- −10 -->
      <defs>
       <path d="M 12.40625 8.296875 
L 28.515625 8.296875 
L 28.515625 63.921875 
L 10.984375 60.40625 
L 10.984375 69.390625 
L 28.421875 72.90625 
L 38.28125 72.90625 
L 38.28125 8.296875 
L 54.390625 8.296875 
L 54.390625 0 
L 12.40625 0 
z
" id="DejaVuSans-49"/>
      </defs>
      <g transform="translate(145.066719 281.977813)scale(0.14 -0.14)">
       <use xlink:href="#DejaVuSans-8722"/>
       <use x="83.789062" xlink:href="#DejaVuSans-49"/>
       <use x="147.412109" xlink:href="#DejaVuSans-48"/>
      </g>
     </g>
    </g>
    <g id="xtick_4">
     <g id="line2d_7">
      <path clip-path="url(#p281c170695)" d="M 222.48 267.84 
L 222.48 34.56 
" style="fill:none;stroke:#cbcbcb;"/>
     </g>
     <g id="line2d_8"/>
     <g id="text_4">
      <!-- 0 -->
      <g transform="translate(218.02625 281.977813)scale(0.14 -0.14)">
       <use xlink:href="#DejaVuSans-48"/>
      </g>
     </g>
    </g>
    <g id="xtick_5">
     <g id="line2d_9">
      <path clip-path="url(#p281c170695)" d="M 285.12 267.84 
L 285.12 34.56 
" style="fill:none;stroke:#cbcbcb;"/>
     </g>
     <g id="line2d_10"/>
     <g id="text_5">
      <!-- 10 -->
      <g transform="translate(276.2125 281.977813)scale(0.14 -0.14)">
       <use xlink:href="#DejaVuSans-49"/>
       <use x="63.623047" xlink:href="#DejaVuSans-48"/>
      </g>
     </g>
    </g>
    <g id="xtick_6">
     <g id="line2d_11">
      <path clip-path="url(#p281c170695)" d="M 347.76 267.84 
L 347.76 34.56 
" style="fill:none;stroke:#cbcbcb;"/>
     </g>
     <g id="line2d_12"/>
     <g id="text_6">
      <!-- 20 -->
      <g transform="translate(338.8525 281.977813)scale(0.14 -0.14)">
       <use xlink:href="#DejaVuSans-50"/>
       <use x="63.623047" xlink:href="#DejaVuSans-48"/>
      </g>
     </g>
    </g>
    <g id="xtick_7">
     <g id="line2d_13">
      <path clip-path="url(#p281c170695)" d="M 410.4 267.84 
L 410.4 34.56 
" style="fill:none;stroke:#cbcbcb;"/>
     </g>
     <g id="line2d_14"/>
     <g id="text_7">
      <!-- 30 -->
      <g transform="translate(401.4925 281.977813)scale(0.14 -0.14)">
       <use xlink:href="#DejaVuSans-51"/>
       <use x="63.623047" xlink:href="#DejaVuSans-48"/>
      </g>
     </g>
    </g>
   </g>
   <g id="matplotlib.axis_2">
    <g id="ytick_1">
     <g id="line2d_15">
      <path clip-path="url(#p281c170695)" d="M 34.56 267.84 
L 410.4 267.84 
" style="fill:none;stroke:#cbcbcb;"/>
     </g>
     <g id="line2d_16"/>
     <g id="text_8">
      <!-- −30 -->
      <g transform="translate(1.513437 273.158906)scale(0.14 -0.14)">
       <use xlink:href="#DejaVuSans-8722"/>
       <use x="83.789062" xlink:href="#DejaVuSans-51"/>
       <use x="147.412109" xlink:href="#DejaVuSans-48"/>
      </g>
     </g>
    </g>
    <g id="ytick_2">
     <g id="line2d_17">
      <path clip-path="url(#p281c170695)" d="M 34.56 228.96 
L 410.4 228.96 
" style="fill:none;stroke:#cbcbcb;"/>
     </g>
     <g id="line2d_18"/>
     <g id="text_9">
      <!-- −20 -->
      <g transform="translate(1.513437 234.278906)scale(0.14 -0.14)">
       <use xlink:href="#DejaVuSans-8722"/>
       <use x="83.789062" xlink:href="#DejaVuSans-50"/>
       <use x="147.412109" xlink:href="#DejaVuSans-48"/>
      </g>
     </g>
    </g>
    <g id="ytick_3">
     <g id="line2d_19">
      <path clip-path="url(#p281c170695)" d="M 34.56 190.08 
L 410.4 190.08 
" style="fill:none;stroke:#cbcbcb;"/>
     </g>
     <g id="line2d_20"/>
     <g id="text_10">
      <!-- −10 -->
      <g transform="translate(1.513437 195.398906)scale(0.14 -0.14)">
       <use xlink:href="#DejaVuSans-8722"/>
       <use x="83.789062" xlink:href="#DejaVuSans-49"/>
       <use x="147.412109" xlink:href="#DejaVuSans-48"/>
      </g>
     </g>
    </g>
    <g id="ytick_4">
     <g id="line2d_21">
      <path clip-path="url(#p281c170695)" d="M 34.56 151.2 
L 410.4 151.2 
" style="fill:none;stroke:#cbcbcb;"/>
     </g>
     <g id="line2d_22"/>
     <g id="text_11">
      <!-- 0 -->
      <g transform="translate(22.1525 156.518906)scale(0.14 -0.14)">
       <use xlink:href="#DejaVuSans-48"/>
      </g>
     </g>
    </g>
    <g id="ytick_5">
     <g id="line2d_23">
      <path clip-path="url(#p281c170695)" d="M 34.56 112.32 
L 410.4 112.32 
" style="fill:none;stroke:#cbcbcb;"/>
     </g>
     <g id="line2d_24"/>
     <g id="text_12">
      <!-- 10 -->
      <g transform="translate(13.245 117.638906)scale(0.14 -0.14)">
       <use xlink:href="#DejaVuSans-49"/>
       <use x="63.623047" xlink:href="#DejaVuSans-48"/>
      </g>
     </g>
    </g>
    <g id="ytick_6">
     <g id="line2d_25">
      <path clip-path="url(#p281c170695)" d="M 34.56 73.44 
L 410.4 73.44 
" style="fill:none;stroke:#cbcbcb;"/>
     </g>
     <g id="line2d_26"/>
     <g id="text_13">
      <!-- 20 -->
      <g transform="translate(13.245 78.758906)scale(0.14 -0.14)">
       <use xlink:href="#DejaVuSans-50"/>
       <use x="63.623047" xlink:href="#DejaVuSans-48"/>
      </g>
     </g>
    </g>
    <g id="ytick_7">
     <g id="line2d_27">
      <path clip-path="url(#p281c170695)" d="M 34.56 34.56 
L 410.4 34.56 
" style="fill:none;stroke:#cbcbcb;"/>
     </g>
     <g id="line2d_28"/>
     <g id="text_14">
      <!-- 30 -->
      <g transform="translate(13.245 39.878906)scale(0.14 -0.14)">
       <use xlink:href="#DejaVuSans-51"/>
       <use x="63.623047" xlink:href="#DejaVuSans-48"/>
      </g>
     </g>
    </g>
   </g>
   <g id="LineCollection_1">
    <path clip-path="url(#p281c170695)" d="M 217.835937 130.702449 
L 216.981481 124.101818 
L 216.723317 121.745455 
L 214.309308 76.974545 
L 214.064697 69.905455 
L 214.066007 67.549091 
L 214.242151 65.192727 
L 215.542514 62.836364 
L 216.785455 62.378051 
L 217.758455 72.261818 
L 218.67545 79.330909 
L 219.516446 84.043636 
L 220.629192 88.756364 
L 221.895969 102.894545 
L 222.986671 112.32 
L 223.690553 117.032727 
L 224.451895 121.745455 
L 225.740652 138.24 
L 226.882499 150.021818 
L 227.782878 157.090909 
L 228.174545 159.580063 
L 230.269035 192.436364 
L 231.219775 204.218182 
L 231.995445 211.287273 
L 232.298361 223.069091 
L 232.328009 232.494545 
L 232.197633 237.207273 
L 231.970909 240.849609 
L 231.326217 234.850909 
L 230.982534 232.494545 
L 230.519754 230.138182 
L 229.795784 227.781818 
L 228.174545 225.308712 
L 227.045279 213.643636 
L 226.148917 206.574545 
L 225.358494 201.861818 
L 224.342163 197.149091 
L 223.123001 183.010909 
L 222.106905 173.585455 
L 221.535251 169.306251 
L 221.535251 169.306251 
" style="fill:none;stroke:#440154;stroke-width:4;"/>
   </g>
   <g id="LineCollection_2">
    <path clip-path="url(#p281c170695)" d="M 222.898489 267.84 
L 222.636893 265.483636 
L 222.37036 263.127273 
L 222.098598 260.770909 
L 221.82129 258.414545 
L 221.538093 256.058182 
L 221.248636 253.701818 
L 220.952514 251.345455 
L 220.714561 249.496318 
" style="fill:none;stroke:#450457;stroke-width:4;"/>
    <path clip-path="url(#p281c170695)" d="M 215.686975 201.360417 
L 215.507101 199.505455 
L 215.275338 197.149091 
L 215.040131 194.792727 
L 214.801295 192.436364 
L 214.55863 190.08 
L 214.311922 187.723636 
L 214.06094 185.367273 
L 213.805435 183.010909 
L 213.54514 180.654545 
L 213.279762 178.298182 
L 213.00899 175.941818 
L 212.989091 175.768934 
L 212.800089 173.585455 
L 212.594168 171.229091 
L 212.385961 168.872727 
L 212.175356 166.516364 
L 211.962235 164.16 
L 211.746471 161.803636 
L 211.527928 159.447273 
L 211.306461 157.090909 
L 211.081916 154.734545 
L 210.854127 152.378182 
L 210.622914 150.021818 
L 210.388086 147.665455 
L 210.149437 145.309091 
L 209.906745 142.952727 
L 209.659769 140.596364 
L 209.40825 138.24 
L 209.192727 136.252473 
L 209.162497 135.883636 
L 208.970068 133.527273 
L 208.775813 131.170909 
L 208.579646 128.814545 
L 208.381472 126.458182 
L 208.181192 124.101818 
L 207.978701 121.745455 
L 207.773885 119.389091 
L 207.566623 117.032727 
L 207.356785 114.676364 
L 207.144232 112.32 
L 206.928815 109.963636 
L 206.710373 107.607273 
L 206.488735 105.250909 
L 206.263713 102.894545 
L 206.035107 100.538182 
L 205.802701 98.181818 
L 205.566259 95.825455 
L 205.396364 94.152323 
L 205.344185 93.469091 
L 205.164803 91.112727 
L 204.983985 88.756364 
L 204.801659 86.4 
L 204.617751 84.043636 
L 204.432181 81.687273 
L 204.244864 79.330909 
L 204.055709 76.974545 
L 203.864619 74.618182 
L 203.671489 72.261818 
L 203.476207 69.905455 
L 203.278653 67.549091 
L 203.078697 65.192727 
L 202.876199 62.836364 
L 202.671008 60.48 
L 202.462962 58.123636 
L 202.251885 55.767273 
L 202.037584 53.410909 
L 201.819853 51.054545 
L 201.6 48.714167 
L 201.598882 48.698182 
L 201.435818 46.341818 
L 201.271807 43.985455 
L 201.106803 41.629091 
L 200.940754 39.272727 
L 200.773607 36.916364 
L 200.605301 34.56 
" style="fill:none;stroke:#450457;stroke-width:4;"/>
    <path clip-path="url(#p281c170695)" d="M 224.141948 34.56 
L 224.378182 36.357504 
L 224.432502 36.916364 
L 224.661777 39.272727 
L 224.894242 41.629091 
L 225.13006 43.985455 
L 225.369408 46.341818 
L 225.612472 48.698182 
L 225.808423 50.567679 
" style="fill:none;stroke:#450457;stroke-width:4;"/>
    <path clip-path="url(#p281c170695)" d="M 230.905812 98.696589 
L 231.107606 100.538182 
L 231.37071 102.894545 
L 231.639016 105.250909 
L 231.912845 107.607273 
L 231.970909 108.10456 
L 232.134094 109.963636 
L 232.342523 112.32 
L 232.553322 114.676364 
L 232.766605 117.032727 
L 232.982496 119.389091 
L 233.201126 121.745455 
L 233.422636 124.101818 
L 233.647176 126.458182 
L 233.874907 128.814545 
L 234.106002 131.170909 
L 234.340645 133.527273 
L 234.579036 135.883636 
L 234.821389 138.24 
L 235.067934 140.596364 
L 235.318921 142.952727 
L 235.574619 145.309091 
L 235.767273 147.059642 
L 235.81765 147.665455 
L 236.013247 150.021818 
L 236.210771 152.378182 
L 236.410315 154.734545 
L 236.611977 157.090909 
L 236.815863 159.447273 
L 237.022084 161.803636 
L 237.23076 164.16 
L 237.442019 166.516364 
L 237.655999 168.872727 
L 237.872846 171.229091 
L 238.092718 173.585455 
L 238.315785 175.941818 
L 238.54223 178.298182 
L 238.772248 180.654545 
L 239.006053 183.010909 
L 239.243874 185.367273 
L 239.485959 187.723636 
L 239.563636 188.476449 
L 239.688036 190.08 
L 239.87144 192.436364 
L 240.056413 194.792727 
L 240.243029 197.149091 
L 240.431372 199.505455 
L 240.621527 201.861818 
L 240.813587 204.218182 
L 241.007653 206.574545 
L 241.20383 208.930909 
L 241.402232 211.287273 
L 241.602983 213.643636 
L 241.806213 216 
L 242.012065 218.356364 
L 242.22069 220.712727 
L 242.432254 223.069091 
L 242.646935 225.425455 
L 242.864925 227.781818 
L 243.086434 230.138182 
L 243.311688 232.494545 
L 243.36 232.999703 
L 243.491711 234.850909 
L 243.659861 237.207273 
L 243.829125 239.563636 
L 243.999561 241.92 
L 244.171228 244.276364 
L 244.344191 246.632727 
L 244.518518 248.989091 
L 244.694284 251.345455 
L 244.871566 253.701818 
L 245.050451 256.058182 
L 245.23103 258.414545 
L 245.413401 260.770909 
L 245.597671 263.127273 
L 245.783955 265.483636 
L 245.972377 267.84 
" style="fill:none;stroke:#450457;stroke-width:4;"/>
   </g>
   <g id="LineCollection_3">
    <path clip-path="url(#p281c170695)" d="M 194.363696 267.84 
L 194.117324 265.483636 
L 194.007273 264.43325 
L 193.882119 263.127273 
L 193.655864 260.770909 
L 193.428619 258.414545 
L 193.200369 256.058182 
L 192.971096 253.701818 
L 192.740784 251.345455 
L 192.509416 248.989091 
L 192.276974 246.632727 
L 192.043441 244.276364 
L 191.808797 241.92 
L 191.573025 239.563636 
L 191.336105 237.207273 
L 191.098017 234.850909 
L 190.858742 232.494545 
L 190.618258 230.138182 
L 190.376546 227.781818 
L 190.210909 226.172433 
L 190.140556 225.425455 
L 189.9185 223.069091 
L 189.695504 220.712727 
L 189.471554 218.356364 
L 189.246633 216 
L 189.020727 213.643636 
L 188.793818 211.287273 
L 188.565891 208.930909 
L 188.336929 206.574545 
L 188.106913 204.218182 
L 187.875827 201.861818 
L 187.643652 199.505455 
L 187.41037 197.149091 
L 187.175962 194.792727 
L 186.940409 192.436364 
L 186.70369 190.08 
L 186.465786 187.723636 
L 186.414545 187.216366 
L 186.243617 185.367273 
L 186.025157 183.010909 
L 185.805797 180.654545 
L 185.585521 178.298182 
L 185.364316 175.941818 
L 185.142164 173.585455 
L 184.919052 171.229091 
L 184.694963 168.872727 
L 184.469881 166.516364 
L 184.243789 164.16 
L 184.016671 161.803636 
L 183.788509 159.447273 
L 183.559285 157.090909 
L 183.328981 154.734545 
L 183.097579 152.378182 
L 182.86506 150.021818 
L 182.631404 147.665455 
L 182.618182 147.532042 
L 182.416572 145.309091 
L 182.202081 142.952727 
L 181.986733 140.596364 
L 181.770512 138.24 
L 181.608168 136.478004 
" style="fill:none;stroke:#482475;stroke-width:4;"/>
    <path clip-path="url(#p281c170695)" d="M 176.244491 78.726708 
L 176.081015 76.974545 
L 175.860193 74.618182 
L 175.638382 72.261818 
L 175.415564 69.905455 
L 175.191722 67.549091 
L 175.025455 65.804291 
L 174.972122 65.192727 
L 174.766686 62.836364 
L 174.560488 60.48 
L 174.353517 58.123636 
L 174.14576 55.767273 
L 173.937204 53.410909 
L 173.727836 51.054545 
L 173.517643 48.698182 
L 173.30661 46.341818 
L 173.094725 43.985455 
L 172.881972 41.629091 
L 172.668337 39.272727 
L 172.453806 36.916364 
L 172.238361 34.56 
" style="fill:none;stroke:#482475;stroke-width:4;"/>
    <path clip-path="url(#p281c170695)" d="M 252.418693 34.56 
L 252.651993 36.916364 
L 252.886395 39.272727 
L 253.121917 41.629091 
L 253.358578 43.985455 
L 253.596398 46.341818 
L 253.835395 48.698182 
L 254.075592 51.054545 
L 254.317007 53.410909 
L 254.559663 55.767273 
L 254.749091 57.599604 
L 254.798666 58.123636 
L 255.021604 60.48 
L 255.245492 62.836364 
L 255.470344 65.192727 
L 255.696176 67.549091 
L 255.923004 69.905455 
L 256.150845 72.261818 
L 256.379716 74.618182 
L 256.609632 76.974545 
L 256.840613 79.330909 
L 257.072676 81.687273 
L 257.305838 84.043636 
L 257.540119 86.4 
L 257.775539 88.756364 
L 258.012115 91.112727 
L 258.249869 93.469091 
L 258.488821 95.825455 
L 258.545455 96.383567 
L 258.712436 98.181818 
L 258.931866 100.538182 
L 259.152207 102.894545 
L 259.373475 105.250909 
L 259.595684 107.607273 
L 259.818849 109.963636 
L 260.042987 112.32 
L 260.268114 114.676364 
L 260.494245 117.032727 
L 260.721398 119.389091 
L 260.94959 121.745455 
L 261.178839 124.101818 
L 261.409162 126.458182 
L 261.640577 128.814545 
L 261.873104 131.170909 
L 262.106762 133.527273 
L 262.34157 135.883636 
L 262.341818 135.886131 
L 262.556285 138.24 
L 262.771834 140.596364 
L 262.988253 142.952727 
L 263.205556 145.309091 
L 263.423757 147.665455 
L 263.642871 150.021818 
L 263.862913 152.378182 
L 264.083898 154.734545 
L 264.305843 157.090909 
L 264.528762 159.447273 
L 264.752673 161.803636 
L 264.977592 164.16 
L 265.146071 165.917062 
" style="fill:none;stroke:#482475;stroke-width:4;"/>
    <path clip-path="url(#p281c170695)" d="M 270.501398 223.669047 
L 270.656612 225.425455 
L 270.865644 227.781818 
L 271.075489 230.138182 
L 271.286161 232.494545 
L 271.497673 234.850909 
L 271.710038 237.207273 
L 271.923272 239.563636 
L 272.137388 241.92 
L 272.352403 244.276364 
L 272.56833 246.632727 
L 272.785186 248.989091 
L 273.002986 251.345455 
L 273.221748 253.701818 
L 273.441486 256.058182 
L 273.66222 258.414545 
L 273.730909 259.147415 
L 273.870088 260.770909 
L 274.072482 263.127273 
L 274.275609 265.483636 
L 274.47948 267.84 
" style="fill:none;stroke:#482475;stroke-width:4;"/>
   </g>
   <g id="LineCollection_4">
    <path clip-path="url(#p281c170695)" d="M 106.731243 267.84 
L 106.690909 267.42764 
L 106.506011 265.483636 
L 106.28165 263.127273 
L 106.056978 260.770909 
L 105.831993 258.414545 
L 105.606694 256.058182 
L 105.381078 253.701818 
L 105.155144 251.345455 
L 104.928891 248.989091 
L 104.702316 246.632727 
L 104.475419 244.276364 
L 104.248196 241.92 
L 104.08409 240.220604 
" style="fill:none;stroke:#fde725;stroke-width:4;"/>
    <path clip-path="url(#p281c170695)" d="M 97.653398 172.927203 
L 97.492436 171.229091 
L 97.268768 168.872727 
L 97.044788 166.516364 
L 96.820494 164.16 
L 96.595884 161.803636 
L 96.370957 159.447273 
L 96.145712 157.090909 
L 95.920146 154.734545 
L 95.694257 152.378182 
L 95.468045 150.021818 
L 95.301818 148.291971 
L 95.243273 147.665455 
L 95.023066 145.309091 
L 94.802562 142.952727 
L 94.58176 140.596364 
L 94.360659 138.24 
L 94.139257 135.883636 
L 93.917551 133.527273 
L 93.695542 131.170909 
L 93.473227 128.814545 
L 93.250604 126.458182 
L 93.027672 124.101818 
L 92.80443 121.745455 
L 92.580875 119.389091 
L 92.357006 117.032727 
L 92.132821 114.676364 
L 91.908319 112.32 
L 91.683499 109.963636 
L 91.505455 108.099513 
L 91.459736 107.607273 
L 91.240888 105.250909 
L 91.021748 102.894545 
L 90.802315 100.538182 
L 90.582588 98.181818 
L 90.362563 95.825455 
L 90.142241 93.469091 
L 89.92162 91.112727 
L 89.700697 88.756364 
L 89.479472 86.4 
L 89.257943 84.043636 
L 89.036108 81.687273 
L 88.813966 79.330909 
L 88.591514 76.974545 
L 88.368752 74.618182 
L 88.145678 72.261818 
L 87.922289 69.905455 
L 87.709091 67.659563 
L 87.698893 67.549091 
L 87.481444 65.192727 
L 87.263707 62.836364 
L 87.045682 60.48 
L 86.827367 58.123636 
L 86.608761 55.767273 
L 86.389862 53.410909 
L 86.170668 51.054545 
L 85.951179 48.698182 
L 85.731392 46.341818 
L 85.511305 43.985455 
L 85.290918 41.629091 
L 85.070229 39.272727 
L 84.849236 36.916364 
L 84.627937 34.56 
" style="fill:none;stroke:#fde725;stroke-width:4;"/>
    <path clip-path="url(#p281c170695)" d="M 340.031235 34.56 
L 340.258136 36.916364 
L 340.485361 39.272727 
L 340.712912 41.629091 
L 340.940791 43.985455 
L 341.168998 46.341818 
L 341.397537 48.698182 
L 341.626409 51.054545 
L 341.855615 53.410909 
L 342.065455 55.565341 
L 342.08458 55.767273 
L 342.307716 58.123636 
L 342.531158 60.48 
L 342.692563 62.179802 
" style="fill:none;stroke:#fde725;stroke-width:4;"/>
    <path clip-path="url(#p281c170695)" d="M 349.116441 129.473869 
L 349.279378 131.170909 
L 349.505945 133.527273 
L 349.658182 135.109225 
L 349.730652 135.883636 
L 349.951204 138.24 
L 350.172054 140.596364 
L 350.393203 142.952727 
L 350.614653 145.309091 
L 350.836406 147.665455 
L 351.058462 150.021818 
L 351.280824 152.378182 
L 351.503493 154.734545 
L 351.726471 157.090909 
L 351.949759 159.447273 
L 352.173359 161.803636 
L 352.397272 164.16 
L 352.621501 166.516364 
L 352.846047 168.872727 
L 353.070912 171.229091 
L 353.296097 173.585455 
L 353.454545 175.241986 
L 353.51964 175.941818 
L 353.738842 178.298182 
L 353.958337 180.654545 
L 354.178127 183.010909 
L 354.398213 185.367273 
L 354.618596 187.723636 
L 354.839279 190.08 
L 355.060262 192.436364 
L 355.281548 194.792727 
L 355.503137 197.149091 
L 355.725032 199.505455 
L 355.947234 201.861818 
L 356.169745 204.218182 
L 356.392566 206.574545 
L 356.615699 208.930909 
L 356.839146 211.287273 
L 357.062908 213.643636 
L 357.250909 215.621173 
L 357.285931 216 
L 357.503744 218.356364 
L 357.721845 220.712727 
L 357.940236 223.069091 
L 358.158918 225.425455 
L 358.377893 227.781818 
L 358.597162 230.138182 
L 358.816727 232.494545 
L 359.036589 234.850909 
L 359.25675 237.207273 
L 359.477211 239.563636 
L 359.697975 241.92 
L 359.919042 244.276364 
L 360.140415 246.632727 
L 360.362094 248.989091 
L 360.584082 251.345455 
L 360.806381 253.701818 
L 361.02899 256.058182 
L 361.047273 256.251746 
L 361.24591 258.414545 
L 361.462578 260.770909 
L 361.679531 263.127273 
L 361.89677 265.483636 
L 362.114296 267.84 
" style="fill:none;stroke:#fde725;stroke-width:4;"/>
   </g>
   <g id="patch_3">
    <path d="M 34.56 267.84 
L 34.56 34.56 
" style="fill:none;stroke:#f0f0f0;stroke-linecap:square;stroke-linejoin:miter;stroke-width:3;"/>
   </g>
   <g id="patch_4">
    <path d="M 410.4 267.84 
L 410.4 34.56 
" style="fill:none;stroke:#f0f0f0;stroke-linecap:square;stroke-linejoin:miter;stroke-width:3;"/>
   </g>
   <g id="patch_5">
    <path d="M 34.56 267.84 
L 410.4 267.84 
" style="fill:none;stroke:#f0f0f0;stroke-linecap:square;stroke-linejoin:miter;stroke-width:3;"/>
   </g>
   <g id="patch_6">
    <path d="M 34.56 34.56 
L 410.4 34.56 
" style="fill:none;stroke:#f0f0f0;stroke-linecap:square;stroke-linejoin:miter;stroke-width:3;"/>
   </g>
   <g id="text_15">
    <g clip-path="url(#p281c170695)">
     <!-- 100 -->
     <g style="fill:#440154;" transform="translate(213.936463 135.166513)rotate(-274.716103)scale(0.16 -0.16)">
      <use xlink:href="#DejaVuSans-49"/>
      <use x="63.623047" xlink:href="#DejaVuSans-48"/>
      <use x="127.246094" xlink:href="#DejaVuSans-48"/>
     </g>
    </g>
   </g>
   <g id="text_16">
    <g clip-path="url(#p281c170695)">
     <!-- 1000 -->
     <g style="fill:#450457;" transform="translate(211.690567 205.643034)rotate(-276.039962)scale(0.16 -0.16)">
      <use xlink:href="#DejaVuSans-49"/>
      <use x="63.623047" xlink:href="#DejaVuSans-48"/>
      <use x="127.246094" xlink:href="#DejaVuSans-48"/>
      <use x="190.869141" xlink:href="#DejaVuSans-48"/>
     </g>
    </g>
   </g>
   <g id="text_17">
    <g clip-path="url(#p281c170695)">
     <!-- 1000 -->
     <g style="fill:#450457;" transform="translate(221.956643 54.834401)rotate(-276.028034)scale(0.16 -0.16)">
      <use xlink:href="#DejaVuSans-49"/>
      <use x="63.623047" xlink:href="#DejaVuSans-48"/>
      <use x="127.246094" xlink:href="#DejaVuSans-48"/>
      <use x="190.869141" xlink:href="#DejaVuSans-48"/>
     </g>
    </g>
   </g>
   <g id="text_18">
    <g clip-path="url(#p281c170695)">
     <!-- 10000 -->
     <g style="fill:#482475;" transform="translate(172.122885 82.674855)rotate(-275.308149)scale(0.16 -0.16)">
      <use xlink:href="#DejaVuSans-49"/>
      <use x="63.623047" xlink:href="#DejaVuSans-48"/>
      <use x="127.246094" xlink:href="#DejaVuSans-48"/>
      <use x="190.869141" xlink:href="#DejaVuSans-48"/>
      <use x="254.492188" xlink:href="#DejaVuSans-48"/>
     </g>
    </g>
   </g>
   <g id="text_19">
    <g clip-path="url(#p281c170695)">
     <!-- 10000 -->
     <g style="fill:#482475;" transform="translate(261.078318 169.859839)rotate(-275.304152)scale(0.16 -0.16)">
      <use xlink:href="#DejaVuSans-49"/>
      <use x="63.623047" xlink:href="#DejaVuSans-48"/>
      <use x="127.246094" xlink:href="#DejaVuSans-48"/>
      <use x="190.869141" xlink:href="#DejaVuSans-48"/>
      <use x="254.492188" xlink:href="#DejaVuSans-48"/>
     </g>
    </g>
   </g>
   <g id="text_20">
    <g clip-path="url(#p281c170695)">
     <!-- 100000 -->
     <g style="fill:#fde725;" transform="translate(93.562446 176.592885)rotate(-275.457523)scale(0.16 -0.16)">
      <use xlink:href="#DejaVuSans-49"/>
      <use x="63.623047" xlink:href="#DejaVuSans-48"/>
      <use x="127.246094" xlink:href="#DejaVuSans-48"/>
      <use x="190.869141" xlink:href="#DejaVuSans-48"/>
      <use x="254.492188" xlink:href="#DejaVuSans-48"/>
      <use x="318.115234" xlink:href="#DejaVuSans-48"/>
     </g>
    </g>
   </g>
   <g id="text_21">
    <g clip-path="url(#p281c170695)">
     <!-- 100000 -->
     <g style="fill:#fde725;" transform="translate(338.621906 65.843181)rotate(-275.452711)scale(0.16 -0.16)">
      <use xlink:href="#DejaVuSans-49"/>
      <use x="63.623047" xlink:href="#DejaVuSans-48"/>
      <use x="127.246094" xlink:href="#DejaVuSans-48"/>
      <use x="190.869141" xlink:href="#DejaVuSans-48"/>
      <use x="254.492188" xlink:href="#DejaVuSans-48"/>
      <use x="318.115234" xlink:href="#DejaVuSans-48"/>
     </g>
    </g>
   </g>
  </g>
 </g>
 <defs>
  <clipPath id="p281c170695">
   <rect height="233.28" width="375.84" x="34.56" y="34.56"/>
  </clipPath>
 </defs>
</svg>
