<svg height="720pt" version="1.1" viewBox="0 0 720 720" width="720pt" xmlns="http://www.w3.org/2000/svg" xmlns:xlink="http://www.w3.org/1999/xlink">
 <defs>
  <style type="text/css">
*{stroke-linecap:butt;stroke-linejoin:round;}
  </style>
 </defs>
 <g id="figure_1">
  <g id="patch_1">
   <path d="M 0 720 
L 720 720 
L 720 0 
L 0 0 
z
" style="fill:#f0f0f0;"/>
  </g>
  <g id="axes_1">
   <g id="patch_2">
    <path d="M 57.6 351.490909 
L 315.952941 351.490909 
L 315.952941 86.4 
L 57.6 86.4 
z
" style="fill:#f0f0f0;"/>
   </g>
   <g id="matplotlib.axis_1">
    <g id="xtick_1">
     <g id="line2d_1">
      <path clip-path="url(#p32007db3a5)" d="M 57.6 351.490909 
L 57.6 86.4 
" style="fill:none;stroke:#cbcbcb;"/>
     </g>
     <g id="line2d_2"/>
     <g id="text_1">
      <!-- −30 -->
      <defs>
       <path d="M 10.59375 35.5 
L 73.1875 35.5 
L 73.1875 27.203125 
L 10.59375 27.203125 
z
" id="DejaVuSans-8722"/>
       <path d="M 40.578125 39.3125 
Q 47.65625 37.796875 51.625 33 
Q 55.609375 28.21875 55.609375 21.1875 
Q 55.609375 10.40625 48.1875 4.484375 
Q 40.765625 -1.421875 27.09375 -1.421875 
Q 22.515625 -1.421875 17.65625 -0.515625 
Q 12.796875 0.390625 7.625 2.203125 
L 7.625 11.71875 
Q 11.71875 9.328125 16.59375 8.109375 
Q 21.484375 6.890625 26.8125 6.890625 
Q 36.078125 6.890625 40.9375 10.546875 
Q 45.796875 14.203125 45.796875 21.1875 
Q 45.796875 27.640625 41.28125 31.265625 
Q 36.765625 34.90625 28.71875 34.90625 
L 20.21875 34.90625 
L 20.21875 43.015625 
L 29.109375 43.015625 
Q 36.375 43.015625 40.234375 45.921875 
Q 44.09375 48.828125 44.09375 54.296875 
Q 44.09375 59.90625 40.109375 62.90625 
Q 36.140625 65.921875 28.71875 65.921875 
Q 24.65625 65.921875 20.015625 65.03125 
Q 15.375 64.15625 9.8125 62.3125 
L 9.8125 71.09375 
Q 15.4375 72.65625 20.34375 73.4375 
Q 25.25 74.21875 29.59375 74.21875 
Q 40.828125 74.21875 47.359375 69.109375 
Q 53.90625 64.015625 53.90625 55.328125 
Q 53.90625 49.265625 50.4375 45.09375 
Q 46.96875 40.921875 40.578125 39.3125 
z
" id="DejaVuSans-51"/>
       <path d="M 31.78125 66.40625 
Q 24.171875 66.40625 20.328125 58.90625 
Q 16.5 51.421875 16.5 36.375 
Q 16.5 21.390625 20.328125 13.890625 
Q 24.171875 6.390625 31.78125 6.390625 
Q 39.453125 6.390625 43.28125 13.890625 
Q 47.125 21.390625 47.125 36.375 
Q 47.125 51.421875 43.28125 58.90625 
Q 39.453125 66.40625 31.78125 66.40625 
z
M 31.78125 74.21875 
Q 44.046875 74.21875 50.515625 64.515625 
Q 56.984375 54.828125 56.984375 36.375 
Q 56.984375 17.96875 50.515625 8.265625 
Q 44.046875 -1.421875 31.78125 -1.421875 
Q 19.53125 -1.421875 13.0625 8.265625 
Q 6.59375 17.96875 6.59375 36.375 
Q 6.59375 54.828125 13.0625 64.515625 
Q 19.53125 74.21875 31.78125 74.21875 
z
" id="DejaVuSans-48"/>
      </defs>
      <g transform="translate(42.826719 365.628722)scale(0.14 -0.14)">
       <use xlink:href="#DejaVuSans-8722"/>
       <use x="83.789062" xlink:href="#DejaVuSans-51"/>
       <use x="147.412109" xlink:href="#DejaVuSans-48"/>
      </g>
     </g>
    </g>
    <g id="xtick_2">
     <g id="line2d_3">
      <path clip-path="url(#p32007db3a5)" d="M 100.658824 351.490909 
L 100.658824 86.4 
" style="fill:none;stroke:#cbcbcb;"/>
     </g>
     <g id="line2d_4"/>
     <g id="text_2">
      <!-- −20 -->
      <defs>
       <path d="M 19.1875 8.296875 
L 53.609375 8.296875 
L 53.609375 0 
L 7.328125 0 
L 7.328125 8.296875 
Q 12.9375 14.109375 22.625 23.890625 
Q 32.328125 33.6875 34.8125 36.53125 
Q 39.546875 41.84375 41.421875 45.53125 
Q 43.3125 49.21875 43.3125 52.78125 
Q 43.3125 58.59375 39.234375 62.25 
Q 35.15625 65.921875 28.609375 65.921875 
Q 23.96875 65.921875 18.8125 64.3125 
Q 13.671875 62.703125 7.8125 59.421875 
L 7.8125 69.390625 
Q 13.765625 71.78125 18.9375 73 
Q 24.125 74.21875 28.421875 74.21875 
Q 39.75 74.21875 46.484375 68.546875 
Q 53.21875 62.890625 53.21875 53.421875 
Q 53.21875 48.921875 51.53125 44.890625 
Q 49.859375 40.875 45.40625 35.40625 
Q 44.1875 33.984375 37.640625 27.21875 
Q 31.109375 20.453125 19.1875 8.296875 
z
" id="DejaVuSans-50"/>
      </defs>
      <g transform="translate(85.885542 365.628722)scale(0.14 -0.14)">
       <use xlink:href="#DejaVuSans-8722"/>
       <use x="83.789062" xlink:href="#DejaVuSans-50"/>
       <use x="147.412109" xlink:href="#DejaVuSans-48"/>
      </g>
     </g>
    </g>
    <g id="xtick_3">
     <g id="line2d_5">
      <path clip-path="url(#p32007db3a5)" d="M 143.717647 351.490909 
L 143.717647 86.4 
" style="fill:none;stroke:#cbcbcb;"/>
     </g>
     <g id="line2d_6"/>
     <g id="text_3">
      <!-- −10 -->
      <defs>
       <path d="M 12.40625 8.296875 
L 28.515625 8.296875 
L 28.515625 63.921875 
L 10.984375 60.40625 
L 10.984375 69.390625 
L 28.421875 72.90625 
L 38.28125 72.90625 
L 38.28125 8.296875 
L 54.390625 8.296875 
L 54.390625 0 
L 12.40625 0 
z
" id="DejaVuSans-49"/>
      </defs>
      <g transform="translate(128.944366 365.628722)scale(0.14 -0.14)">
       <use xlink:href="#DejaVuSans-8722"/>
       <use x="83.789062" xlink:href="#DejaVuSans-49"/>
       <use x="147.412109" xlink:href="#DejaVuSans-48"/>
      </g>
     </g>
    </g>
    <g id="xtick_4">
     <g id="line2d_7">
      <path clip-path="url(#p32007db3a5)" d="M 186.776471 351.490909 
L 186.776471 86.4 
" style="fill:none;stroke:#cbcbcb;"/>
     </g>
     <g id="line2d_8"/>
     <g id="text_4">
      <!-- 0 -->
      <g transform="translate(182.322721 365.628722)scale(0.14 -0.14)">
       <use xlink:href="#DejaVuSans-48"/>
      </g>
     </g>
    </g>
    <g id="xtick_5">
     <g id="line2d_9">
      <path clip-path="url(#p32007db3a5)" d="M 229.835294 351.490909 
L 229.835294 86.4 
" style="fill:none;stroke:#cbcbcb;"/>
     </g>
     <g id="line2d_10"/>
     <g id="text_5">
      <!-- 10 -->
      <g transform="translate(220.927794 365.628722)scale(0.14 -0.14)">
       <use xlink:href="#DejaVuSans-49"/>
       <use x="63.623047" xlink:href="#DejaVuSans-48"/>
      </g>
     </g>
    </g>
    <g id="xtick_6">
     <g id="line2d_11">
      <path clip-path="url(#p32007db3a5)" d="M 272.894118 351.490909 
L 272.894118 86.4 
" style="fill:none;stroke:#cbcbcb;"/>
     </g>
     <g id="line2d_12"/>
     <g id="text_6">
      <!-- 20 -->
      <g transform="translate(263.986618 365.628722)scale(0.14 -0.14)">
       <use xlink:href="#DejaVuSans-50"/>
       <use x="63.623047" xlink:href="#DejaVuSans-48"/>
      </g>
     </g>
    </g>
    <g id="xtick_7">
     <g id="line2d_13">
      <path clip-path="url(#p32007db3a5)" d="M 315.952941 351.490909 
L 315.952941 86.4 
" style="fill:none;stroke:#cbcbcb;"/>
     </g>
     <g id="line2d_14"/>
     <g id="text_7">
      <!-- 30 -->
      <g transform="translate(307.045441 365.628722)scale(0.14 -0.14)">
       <use xlink:href="#DejaVuSans-51"/>
       <use x="63.623047" xlink:href="#DejaVuSans-48"/>
      </g>
     </g>
    </g>
    <g id="text_8">
     <!-- w0 -->
     <defs>
      <path d="M 4.203125 54.6875 
L 13.1875 54.6875 
L 24.421875 12.015625 
L 35.59375 54.6875 
L 46.1875 54.6875 
L 57.421875 12.015625 
L 68.609375 54.6875 
L 77.59375 54.6875 
L 63.28125 0 
L 52.6875 0 
L 40.921875 44.828125 
L 29.109375 0 
L 18.5 0 
z
" id="DejaVuSans-119"/>
     </defs>
     <g transform="translate(174.562346 385.305659)scale(0.168 -0.168)">
      <use xlink:href="#DejaVuSans-119"/>
      <use x="81.787109" xlink:href="#DejaVuSans-48"/>
     </g>
    </g>
   </g>
   <g id="matplotlib.axis_2">
    <g id="ytick_1">
     <g id="line2d_15">
      <path clip-path="url(#p32007db3a5)" d="M 57.6 351.490909 
L 315.952941 351.490909 
" style="fill:none;stroke:#cbcbcb;"/>
     </g>
     <g id="line2d_16"/>
     <g id="text_9">
      <!-- −30 -->
      <g transform="translate(24.553437 356.809815)scale(0.14 -0.14)">
       <use xlink:href="#DejaVuSans-8722"/>
       <use x="83.789062" xlink:href="#DejaVuSans-51"/>
       <use x="147.412109" xlink:href="#DejaVuSans-48"/>
      </g>
     </g>
    </g>
    <g id="ytick_2">
     <g id="line2d_17">
      <path clip-path="url(#p32007db3a5)" d="M 57.6 307.309091 
L 315.952941 307.309091 
" style="fill:none;stroke:#cbcbcb;"/>
     </g>
     <g id="line2d_18"/>
     <g id="text_10">
      <!-- −20 -->
      <g transform="translate(24.553437 312.627997)scale(0.14 -0.14)">
       <use xlink:href="#DejaVuSans-8722"/>
       <use x="83.789062" xlink:href="#DejaVuSans-50"/>
       <use x="147.412109" xlink:href="#DejaVuSans-48"/>
      </g>
     </g>
    </g>
    <g id="ytick_3">
     <g id="line2d_19">
      <path clip-path="url(#p32007db3a5)" d="M 57.6 263.127273 
L 315.952941 263.127273 
" style="fill:none;stroke:#cbcbcb;"/>
     </g>
     <g id="line2d_20"/>
     <g id="text_11">
      <!-- −10 -->
      <g transform="translate(24.553437 268.446179)scale(0.14 -0.14)">
       <use xlink:href="#DejaVuSans-8722"/>
       <use x="83.789062" xlink:href="#DejaVuSans-49"/>
       <use x="147.412109" xlink:href="#DejaVuSans-48"/>
      </g>
     </g>
    </g>
    <g id="ytick_4">
     <g id="line2d_21">
      <path clip-path="url(#p32007db3a5)" d="M 57.6 218.945455 
L 315.952941 218.945455 
" style="fill:none;stroke:#cbcbcb;"/>
     </g>
     <g id="line2d_22"/>
     <g id="text_12">
      <!-- 0 -->
      <g transform="translate(45.1925 224.264361)scale(0.14 -0.14)">
       <use xlink:href="#DejaVuSans-48"/>
      </g>
     </g>
    </g>
    <g id="ytick_5">
     <g id="line2d_23">
      <path clip-path="url(#p32007db3a5)" d="M 57.6 174.763636 
L 315.952941 174.763636 
" style="fill:none;stroke:#cbcbcb;"/>
     </g>
     <g id="line2d_24"/>
     <g id="text_13">
      <!-- 10 -->
      <g transform="translate(36.285 180.082543)scale(0.14 -0.14)">
       <use xlink:href="#DejaVuSans-49"/>
       <use x="63.623047" xlink:href="#DejaVuSans-48"/>
      </g>
     </g>
    </g>
    <g id="ytick_6">
     <g id="line2d_25">
      <path clip-path="url(#p32007db3a5)" d="M 57.6 130.581818 
L 315.952941 130.581818 
" style="fill:none;stroke:#cbcbcb;"/>
     </g>
     <g id="line2d_26"/>
     <g id="text_14">
      <!-- 20 -->
      <g transform="translate(36.285 135.900724)scale(0.14 -0.14)">
       <use xlink:href="#DejaVuSans-50"/>
       <use x="63.623047" xlink:href="#DejaVuSans-48"/>
      </g>
     </g>
    </g>
    <g id="ytick_7">
     <g id="line2d_27">
      <path clip-path="url(#p32007db3a5)" d="M 57.6 86.4 
L 315.952941 86.4 
" style="fill:none;stroke:#cbcbcb;"/>
     </g>
     <g id="line2d_28"/>
     <g id="text_15">
      <!-- 30 -->
      <g transform="translate(36.285 91.718906)scale(0.14 -0.14)">
       <use xlink:href="#DejaVuSans-51"/>
       <use x="63.623047" xlink:href="#DejaVuSans-48"/>
      </g>
     </g>
    </g>
    <g id="text_16">
     <!-- w1 -->
     <g transform="translate(17.059562 231.15958)rotate(-90)scale(0.168 -0.168)">
      <use xlink:href="#DejaVuSans-119"/>
      <use x="81.787109" xlink:href="#DejaVuSans-49"/>
     </g>
    </g>
   </g>
   <g id="LineCollection_1">
    <path clip-path="url(#p32007db3a5)" d="M 183.754747 198.234549 
L 182.996781 188.152066 
L 182.819319 185.47438 
L 181.090787 131.920661 
L 180.99268 123.887603 
L 181.113762 121.209917 
L 182.007633 118.532231 
L 182.862032 118.011422 
L 183.720438 131.920661 
L 184.427014 139.953719 
L 185.119741 145.309091 
L 185.504222 147.986777 
L 186.544008 166.730579 
L 187.353641 177.441322 
L 188.131954 185.47438 
L 189.160045 206.895868 
L 189.9908 220.284298 
L 190.783295 230.995041 
L 192.248027 268.482645 
L 192.950363 281.871074 
L 193.3174 287.226446 
L 193.547622 303.292562 
L 193.513131 314.003306 
L 193.300535 320.820011 
L 192.857372 314.003306 
L 192.303009 308.647934 
L 191.805351 305.970248 
L 190.690909 303.1599 
L 189.91465 289.904132 
L 189.29849 281.871074 
L 188.755151 276.515702 
L 188.056524 271.160331 
L 187.058774 252.416529 
L 186.312585 241.705785 
L 185.8907 236.969337 
L 185.8907 236.969337 
" style="fill:none;stroke:#440154;stroke-width:4;"/>
   </g>
   <g id="LineCollection_2">
    <path clip-path="url(#p32007db3a5)" d="M 187.06414 351.490909 
L 186.884319 348.813223 
L 186.701104 346.135537 
L 186.514295 343.457851 
L 186.323673 340.780165 
L 186.129003 338.102479 
L 185.930029 335.424793 
L 185.726475 332.747107 
L 185.518037 330.069421 
L 185.471658 329.477972 
L 185.353753 327.445749 
" style="fill:none;stroke:#450457;stroke-width:4;"/>
    <path clip-path="url(#p32007db3a5)" d="M 182.292397 279.143412 
L 182.140357 276.515702 
L 181.98329 273.838017 
L 181.823976 271.160331 
L 181.662294 268.482645 
L 181.498118 265.804959 
L 181.33131 263.127273 
L 181.161722 260.449587 
L 180.989197 257.771901 
L 180.813563 255.094215 
L 180.634635 252.416529 
L 180.452214 249.738843 
L 180.266085 247.061157 
L 180.252406 246.864697 
L 180.122486 244.383471 
L 179.980936 241.705785 
L 179.837814 239.028099 
L 179.693044 236.350413 
L 179.546544 233.672727 
L 179.398228 230.995041 
L 179.248001 228.317355 
L 179.095765 225.639669 
L 178.941412 222.961983 
L 178.784829 220.284298 
L 178.625893 217.606612 
L 178.464472 214.928926 
L 178.300424 212.25124 
L 178.133597 209.573554 
L 177.963826 206.895868 
L 177.790931 204.218182 
L 177.642781 201.959628 
L 177.622 201.540496 
L 177.489724 198.86281 
L 177.356193 196.185124 
L 177.221348 193.507438 
L 177.085123 190.829752 
L 176.94745 188.152066 
L 176.808258 185.47438 
L 176.667467 182.796694 
L 176.524994 180.119008 
L 176.380751 177.441322 
L 176.234642 174.763636 
L 176.086564 172.08595 
L 175.936407 169.408264 
L 175.784052 166.730579 
L 175.629372 164.052893 
L 175.472228 161.375207 
L 175.312472 158.697521 
L 175.149941 156.019835 
L 175.033155 154.118549 
L 174.997287 153.342149 
L 174.87398 150.664463 
L 174.749685 147.986777 
L 174.624354 145.309091 
L 174.497935 142.631405 
L 174.370374 139.953719 
L 174.241612 137.276033 
L 174.111587 134.598347 
L 173.980232 131.920661 
L 173.847474 129.242975 
L 173.713237 126.565289 
L 173.577438 123.887603 
L 173.439988 121.209917 
L 173.30079 118.532231 
L 173.159742 115.854545 
L 173.016731 113.17686 
L 172.871636 110.499174 
L 172.724325 107.821488 
L 172.574657 105.143802 
L 172.423529 102.48428 
L 172.422761 102.466116 
L 172.31067 99.78843 
L 172.197929 97.110744 
L 172.084505 94.433058 
L 171.970363 91.755372 
L 171.855465 89.077686 
L 171.739772 86.4 
" style="fill:none;stroke:#450457;stroke-width:4;"/>
    <path clip-path="url(#p32007db3a5)" d="M 187.918896 86.4 
L 188.081283 88.442619 
L 188.118623 89.077686 
L 188.276227 91.755372 
L 188.436024 94.433058 
L 188.598126 97.110744 
L 188.762654 99.78843 
L 188.929737 102.466116 
L 189.099512 105.143802 
L 189.269221 107.776375 
" style="fill:none;stroke:#450457;stroke-width:4;"/>
    <path clip-path="url(#p32007db3a5)" d="M 192.359018 156.076849 
L 192.529611 158.697521 
L 192.707099 161.375207 
L 192.887957 164.052893 
L 193.072391 166.730579 
L 193.260622 169.408264 
L 193.300535 169.973364 
L 193.412708 172.08595 
L 193.555983 174.763636 
L 193.700886 177.441322 
L 193.847497 180.119008 
L 193.995901 182.796694 
L 194.146188 185.47438 
L 194.298454 188.152066 
L 194.452803 190.829752 
L 194.609346 193.507438 
L 194.768201 196.185124 
L 194.929495 198.86281 
L 195.093365 201.540496 
L 195.259958 204.218182 
L 195.429434 206.895868 
L 195.601963 209.573554 
L 195.77773 212.25124 
L 195.91016 214.240502 
L 195.94479 214.928926 
L 196.079243 217.606612 
L 196.215022 220.284298 
L 196.352189 222.961983 
L 196.490812 225.639669 
L 196.630963 228.317355 
L 196.772719 230.995041 
L 196.916164 233.672727 
L 197.061383 236.350413 
L 197.208473 239.028099 
L 197.357534 241.705785 
L 197.508675 244.383471 
L 197.662011 247.061157 
L 197.81767 249.738843 
L 197.975785 252.416529 
L 198.136503 255.094215 
L 198.299981 257.771901 
L 198.466391 260.449587 
L 198.519786 261.305055 
L 198.605298 263.127273 
L 198.731371 265.804959 
L 198.858521 268.482645 
L 198.986802 271.160331 
L 199.116269 273.838017 
L 199.246981 276.515702 
L 199.379004 279.193388 
L 199.512405 281.871074 
L 199.647257 284.54876 
L 199.78364 287.226446 
L 199.921636 289.904132 
L 200.061336 292.581818 
L 200.202839 295.259504 
L 200.346248 297.93719 
L 200.491678 300.614876 
L 200.63925 303.292562 
L 200.789097 305.970248 
L 200.941362 308.647934 
L 201.096202 311.32562 
L 201.129412 311.899663 
L 201.21995 314.003306 
L 201.335536 316.680992 
L 201.451889 319.358678 
L 201.569047 322.036364 
L 201.687051 324.71405 
L 201.805946 327.391736 
L 201.925779 330.069421 
L 202.0466 332.747107 
L 202.168465 335.424793 
L 202.29143 338.102479 
L 202.41556 340.780165 
L 202.540922 343.457851 
L 202.66759 346.135537 
L 202.795642 348.813223 
L 202.925163 351.490909 
" style="fill:none;stroke:#450457;stroke-width:4;"/>
   </g>
   <g id="LineCollection_3">
    <path clip-path="url(#p32007db3a5)" d="M 167.449284 351.490909 
L 167.279928 348.813223 
L 167.204278 347.619602 
L 167.118247 346.135537 
L 166.962719 343.457851 
L 166.806511 340.780165 
L 166.649611 338.102479 
L 166.492009 335.424793 
L 166.333692 332.747107 
L 166.174649 330.069421 
L 166.014869 327.391736 
L 165.854337 324.71405 
L 165.693043 322.036364 
L 165.662399 321.530075 
" style="fill:none;stroke:#482475;stroke-width:4;"/>
    <path clip-path="url(#p32007db3a5)" d="M 162.214501 263.632721 
L 162.183785 263.127273 
L 162.02025 260.449587 
L 161.985027 259.873143 
L 161.86753 257.771901 
L 161.717361 255.094215 
L 161.566572 252.416529 
L 161.415154 249.738843 
L 161.263097 247.061157 
L 161.11039 244.383471 
L 160.957023 241.705785 
L 160.802983 239.028099 
L 160.648262 236.350413 
L 160.492846 233.672727 
L 160.336724 230.995041 
L 160.179885 228.317355 
L 160.022317 225.639669 
L 159.864006 222.961983 
L 159.704939 220.284298 
L 159.545105 217.606612 
L 159.38449 214.928926 
L 159.375401 214.77732 
L 159.236814 212.25124 
L 159.089373 209.573554 
L 158.941342 206.895868 
L 158.792712 204.218182 
L 158.643472 201.540496 
L 158.493613 198.86281 
L 158.343125 196.185124 
L 158.191997 193.507438 
L 158.040219 190.829752 
L 157.887779 188.152066 
L 157.734667 185.47438 
L 157.580872 182.796694 
L 157.426381 180.119008 
L 157.271183 177.441322 
L 157.115266 174.763636 
L 156.958617 172.08595 
L 156.801224 169.408264 
L 156.765775 168.805375 
L 156.654136 166.730579 
L 156.509679 164.052893 
L 156.364664 161.375207 
L 156.219082 158.697521 
L 156.072924 156.019835 
L 155.92618 153.342149 
L 155.778842 150.664463 
L 155.630898 147.986777 
L 155.482339 145.309091 
L 155.333154 142.631405 
L 155.183334 139.953719 
L 155.032867 137.276033 
L 154.881743 134.598347 
L 154.72995 131.920661 
L 154.577477 129.242975 
L 154.424311 126.565289 
L 154.270442 123.887603 
L 154.15615 121.904876 
L 154.119489 121.209917 
L 153.978272 118.532231 
L 153.836531 115.854545 
L 153.694259 113.17686 
L 153.551446 110.499174 
L 153.408085 107.821488 
L 153.264165 105.143802 
L 153.119678 102.466116 
L 152.974614 99.78843 
L 152.828963 97.110744 
L 152.682717 94.433058 
L 152.535864 91.755372 
L 152.388395 89.077686 
L 152.240298 86.4 
" style="fill:none;stroke:#482475;stroke-width:4;"/>
    <path clip-path="url(#p32007db3a5)" d="M 207.35637 86.4 
L 207.516741 89.077686 
L 207.677869 91.755372 
L 207.839767 94.433058 
L 208.002448 97.110744 
L 208.165926 99.78843 
L 208.330213 102.466116 
L 208.495325 105.143802 
L 208.661274 107.821488 
L 208.828076 110.499174 
L 208.958289 112.581368 
L 208.992367 113.17686 
L 209.145615 115.854545 
L 209.299515 118.532231 
L 209.328666 119.037247 
" style="fill:none;stroke:#482475;stroke-width:4;"/>
    <path clip-path="url(#p32007db3a5)" d="M 212.722971 176.93777 
L 212.752073 177.441322 
L 212.907516 180.119008 
L 213.063661 182.796694 
L 213.220521 185.47438 
L 213.378106 188.152066 
L 213.536431 190.829752 
L 213.695506 193.507438 
L 213.855345 196.185124 
L 214.015962 198.86281 
L 214.177369 201.540496 
L 214.17754 201.54333 
L 214.324965 204.218182 
L 214.473134 206.895868 
L 214.6219 209.573554 
L 214.771275 212.25124 
L 214.921266 214.928926 
L 215.071886 217.606612 
L 215.223143 220.284298 
L 215.375049 222.961983 
L 215.527613 225.639669 
L 215.680848 228.317355 
L 215.834765 230.995041 
L 215.989375 233.672727 
L 216.144689 236.350413 
L 216.30072 239.028099 
L 216.45748 241.705785 
L 216.614982 244.383471 
L 216.773239 247.061157 
L 216.787166 247.296905 
L 216.919176 249.738843 
L 217.064421 252.416529 
L 217.210233 255.094215 
L 217.35662 257.771901 
L 217.503593 260.449587 
L 217.65116 263.127273 
L 217.799331 265.804959 
L 217.948117 268.482645 
L 218.097528 271.160331 
L 218.247574 273.838017 
L 218.398265 276.515702 
L 218.549613 279.193388 
L 218.701629 281.871074 
L 218.854324 284.54876 
L 219.00771 287.226446 
L 219.161798 289.904132 
L 219.316602 292.581818 
L 219.396791 293.966274 
L 219.465338 295.259504 
L 219.607404 297.93719 
L 219.750002 300.614876 
L 219.893141 303.292562 
L 220.03683 305.970248 
L 220.181078 308.647934 
L 220.325894 311.32562 
L 220.471287 314.003306 
L 220.617268 316.680992 
L 220.763845 319.358678 
L 220.911029 322.036364 
L 221.05883 324.71405 
L 221.207259 327.391736 
L 221.356326 330.069421 
L 221.506042 332.747107 
L 221.656419 335.424793 
L 221.807468 338.102479 
L 221.9592 340.780165 
L 222.006417 341.612972 
L 222.102089 343.457851 
L 222.241215 346.135537 
L 222.380844 348.813223 
L 222.520986 351.490909 
" style="fill:none;stroke:#482475;stroke-width:4;"/>
   </g>
   <g id="LineCollection_4">
    <path clip-path="url(#p32007db3a5)" d="M 107.210613 351.490909 
L 107.182888 351.022318 
L 107.055789 348.813223 
L 106.901563 346.135537 
L 106.747123 343.457851 
L 106.592468 340.780165 
L 106.437597 338.102479 
L 106.282508 335.424793 
L 106.127201 332.747107 
L 105.971674 330.069421 
L 105.815926 327.391736 
L 105.659956 324.71405 
L 105.503764 322.036364 
L 105.347346 319.358678 
L 105.190704 316.680992 
L 105.033834 314.003306 
L 104.876737 311.32562 
L 104.719411 308.647934 
L 104.573262 306.163814 
L 104.562188 305.970248 
L 104.409029 303.292562 
L 104.25566 300.614876 
L 104.10208 297.93719 
L 103.948287 295.259504 
L 103.794282 292.581818 
L 103.640062 289.904132 
L 103.485626 287.226446 
L 103.330974 284.54876 
L 103.176104 281.871074 
L 103.021016 279.193388 
L 102.865707 276.515702 
L 102.710177 273.838017 
L 102.554424 271.160331 
L 102.398448 268.482645 
L 102.242248 265.804959 
L 102.085821 263.127273 
L 101.963636 261.037955 
L 101.930177 260.449587 
L 101.777898 257.771901 
L 101.625413 255.094215 
L 101.47272 252.416529 
L 101.319817 249.738843 
L 101.166705 247.061157 
L 101.013381 244.383471 
L 100.859844 241.705785 
L 100.706095 239.028099 
L 100.55213 236.350413 
L 100.39795 233.672727 
L 100.243553 230.995041 
L 100.088938 228.317355 
L 99.934104 225.639669 
L 99.77905 222.961983 
L 99.623774 220.284298 
L 99.468275 217.606612 
L 99.354011 215.640876 
L 99.313767 214.928926 
L 99.162396 212.25124 
L 99.010821 209.573554 
L 98.859042 206.895868 
L 98.707057 204.218182 
L 98.554864 201.540496 
L 98.402464 198.86281 
L 98.249854 196.185124 
L 98.097034 193.507438 
L 97.944003 190.829752 
L 97.790759 188.152066 
L 97.637302 185.47438 
L 97.48363 182.796694 
L 97.329743 180.119008 
L 97.175638 177.441322 
L 97.021315 174.763636 
L 96.866773 172.08595 
L 96.8053 171.021963 
" style="fill:none;stroke:#fde725;stroke-width:4;"/>
    <path clip-path="url(#p32007db3a5)" d="M 92.98631 103.529932 
L 92.926368 102.466116 
L 92.775286 99.78843 
L 92.623998 97.110744 
L 92.472504 94.433058 
L 92.320802 91.755372 
L 92.168891 89.077686 
L 92.01677 86.4 
" style="fill:none;stroke:#fde725;stroke-width:4;"/>
    <path clip-path="url(#p32007db3a5)" d="M 267.581354 86.4 
L 267.737326 89.077686 
L 267.893521 91.755372 
L 268.04994 94.433058 
L 268.206584 97.110744 
L 268.363454 99.78843 
L 268.520552 102.466116 
L 268.677879 105.143802 
L 268.835435 107.821488 
L 268.979679 110.269705 
L 268.992826 110.499174 
L 269.14621 113.17686 
L 269.299804 115.854545 
L 269.45361 118.532231 
L 269.607629 121.209917 
L 269.761862 123.887603 
L 269.916311 126.565289 
L 270.070975 129.242975 
L 270.225858 131.920661 
L 270.380958 134.598347 
L 270.536279 137.276033 
L 270.69182 139.953719 
L 270.847584 142.631405 
L 271.00357 145.309091 
L 271.159782 147.986777 
L 271.316218 150.664463 
L 271.472882 153.342149 
L 271.589305 155.330061 
L 271.628588 156.019835 
L 271.781097 158.697521 
L 271.933814 161.375207 
L 272.08674 164.052893 
L 272.239876 166.730579 
L 272.393222 169.408264 
L 272.546781 172.08595 
L 272.700553 174.763636 
L 272.854539 177.441322 
L 273.008741 180.119008 
L 273.16316 182.796694 
L 273.317796 185.47438 
L 273.472651 188.152066 
L 273.627726 190.829752 
L 273.783022 193.507438 
L 273.93854 196.185124 
L 274.094283 198.86281 
L 274.19893 200.660483 
L 274.248747 201.540496 
L 274.400354 204.218182 
L 274.552167 206.895868 
L 274.704185 209.573554 
L 274.85641 212.25124 
L 275.008843 214.928926 
L 275.161485 217.606612 
L 275.314337 220.284298 
L 275.4674 222.961983 
L 275.620675 225.639669 
L 275.774164 228.317355 
L 275.927867 230.995041 
L 276.081785 233.672727 
L 276.23592 236.350413 
L 276.390274 239.028099 
L 276.544846 241.705785 
L 276.699638 244.383471 
L 276.808556 246.265893 
L 276.853302 247.061157 
L 277.003982 249.738843 
L 277.154863 252.416529 
L 277.305947 255.094215 
L 277.457234 257.771901 
L 277.608726 260.449587 
L 277.760424 263.127273 
L 277.912328 265.804959 
L 277.972797 266.869414 
" style="fill:none;stroke:#fde725;stroke-width:4;"/>
    <path clip-path="url(#p32007db3a5)" d="M 281.801504 334.360895 
L 281.862218 335.424793 
L 282.01524 338.102479 
L 282.027807 338.322439 
L 282.164351 340.780165 
L 282.313289 343.457851 
L 282.462423 346.135537 
L 282.611753 348.813223 
L 282.761281 351.490909 
" style="fill:none;stroke:#fde725;stroke-width:4;"/>
   </g>
   <g id="patch_3">
    <path d="M 57.6 351.490909 
L 57.6 86.4 
" style="fill:none;stroke:#f0f0f0;stroke-linecap:square;stroke-linejoin:miter;stroke-width:3;"/>
   </g>
   <g id="patch_4">
    <path d="M 315.952941 351.490909 
L 315.952941 86.4 
" style="fill:none;stroke:#f0f0f0;stroke-linecap:square;stroke-linejoin:miter;stroke-width:3;"/>
   </g>
   <g id="patch_5">
    <path d="M 57.6 351.490909 
L 315.952941 351.490909 
" style="fill:none;stroke:#f0f0f0;stroke-linecap:square;stroke-linejoin:miter;stroke-width:3;"/>
   </g>
   <g id="patch_6">
    <path d="M 57.6 86.4 
L 315.952941 86.4 
" style="fill:none;stroke:#f0f0f0;stroke-linecap:square;stroke-linejoin:miter;stroke-width:3;"/>
   </g>
   <g id="text_17">
    <g clip-path="url(#p32007db3a5)">
     <!-- 100 -->
     <g style="fill:#440154;" transform="translate(179.653478 202.56439)rotate(-272.731834)scale(0.16 -0.16)">
      <use xlink:href="#DejaVuSans-49"/>
      <use x="63.623047" xlink:href="#DejaVuSans-48"/>
      <use x="127.246094" xlink:href="#DejaVuSans-48"/>
     </g>
    </g>
   </g>
   <g id="text_18">
    <g clip-path="url(#p32007db3a5)">
     <!-- 1000 -->
     <g style="fill:#450457;" transform="translate(178.12781 283.260761)rotate(-273.708521)scale(0.16 -0.16)">
      <use xlink:href="#DejaVuSans-49"/>
      <use x="63.623047" xlink:href="#DejaVuSans-48"/>
      <use x="127.246094" xlink:href="#DejaVuSans-48"/>
      <use x="190.869141" xlink:href="#DejaVuSans-48"/>
     </g>
    </g>
   </g>
   <g id="text_19">
    <g clip-path="url(#p32007db3a5)">
     <!-- 1000 -->
     <g style="fill:#450457;" transform="translate(185.203134 111.882804)rotate(-273.647777)scale(0.16 -0.16)">
      <use xlink:href="#DejaVuSans-49"/>
      <use x="63.623047" xlink:href="#DejaVuSans-48"/>
      <use x="127.246094" xlink:href="#DejaVuSans-48"/>
      <use x="190.869141" xlink:href="#DejaVuSans-48"/>
     </g>
    </g>
   </g>
   <g id="text_20">
    <g clip-path="url(#p32007db3a5)">
     <!-- 10000 -->
     <g style="fill:#482475;" transform="translate(158.017413 267.437939)rotate(-273.395029)scale(0.16 -0.16)">
      <use xlink:href="#DejaVuSans-49"/>
      <use x="63.623047" xlink:href="#DejaVuSans-48"/>
      <use x="127.246094" xlink:href="#DejaVuSans-48"/>
      <use x="190.869141" xlink:href="#DejaVuSans-48"/>
      <use x="254.492188" xlink:href="#DejaVuSans-48"/>
     </g>
    </g>
   </g>
   <g id="text_21">
    <g clip-path="url(#p32007db3a5)">
     <!-- 10000 -->
     <g style="fill:#482475;" transform="translate(205.137322 122.839833)rotate(-273.365308)scale(0.16 -0.16)">
      <use xlink:href="#DejaVuSans-49"/>
      <use x="63.623047" xlink:href="#DejaVuSans-48"/>
      <use x="127.246094" xlink:href="#DejaVuSans-48"/>
      <use x="190.869141" xlink:href="#DejaVuSans-48"/>
      <use x="254.492188" xlink:href="#DejaVuSans-48"/>
     </g>
    </g>
   </g>
   <g id="text_22">
    <g clip-path="url(#p32007db3a5)">
     <!-- 100000 -->
     <g style="fill:#fde725;" transform="translate(88.760048 107.034417)rotate(-273.240351)scale(0.16 -0.16)">
      <use xlink:href="#DejaVuSans-49"/>
      <use x="63.623047" xlink:href="#DejaVuSans-48"/>
      <use x="127.246094" xlink:href="#DejaVuSans-48"/>
      <use x="190.869141" xlink:href="#DejaVuSans-48"/>
      <use x="254.492188" xlink:href="#DejaVuSans-48"/>
      <use x="318.115234" xlink:href="#DejaVuSans-48"/>
     </g>
    </g>
   </g>
   <g id="text_23">
    <g clip-path="url(#p32007db3a5)">
     <!-- 100000 -->
     <g style="fill:#fde725;" transform="translate(273.755486 270.373734)rotate(-273.244777)scale(0.16 -0.16)">
      <use xlink:href="#DejaVuSans-49"/>
      <use x="63.623047" xlink:href="#DejaVuSans-48"/>
      <use x="127.246094" xlink:href="#DejaVuSans-48"/>
      <use x="190.869141" xlink:href="#DejaVuSans-48"/>
      <use x="254.492188" xlink:href="#DejaVuSans-48"/>
      <use x="318.115234" xlink:href="#DejaVuSans-48"/>
     </g>
    </g>
   </g>
  </g>
 </g>
 <defs>
  <clipPath id="p32007db3a5">
   <rect height="265.090909" width="258.352941" x="57.6" y="86.4"/>
  </clipPath>
 </defs>
</svg>
