<svg height="296.307531pt" version="1.1" viewBox="0 0 458.453312 296.307531" width="458.453312pt" xmlns="http://www.w3.org/2000/svg" xmlns:xlink="http://www.w3.org/1999/xlink">
 <defs>
  <style type="text/css">
*{stroke-linecap:butt;stroke-linejoin:round;}
  </style>
 </defs>
 <g id="figure_1">
  <g id="patch_1">
   <path d="M 0 296.307531 
L 458.453312 296.307531 
L 458.453312 0 
L 0 0 
z
" style="fill:#f0f0f0;"/>
  </g>
  <g id="axes_1">
   <g id="patch_2">
    <path d="M 66.505813 245.798906 
L 442.345812 245.798906 
L 442.345812 12.518906 
L 66.505813 12.518906 
z
" style="fill:#f0f0f0;"/>
   </g>
   <g id="matplotlib.axis_1">
    <g id="xtick_1">
     <g id="line2d_1">
      <path clip-path="url(#pe2d607a9c8)" d="M 66.505813 245.798906 
L 66.505813 12.518906 
" style="fill:none;stroke:#cbcbcb;"/>
     </g>
     <g id="line2d_2"/>
     <g id="text_1">
      <!-- −30 -->
      <defs>
       <path d="M 10.59375 35.5 
L 73.1875 35.5 
L 73.1875 27.203125 
L 10.59375 27.203125 
z
" id="DejaVuSans-8722"/>
       <path d="M 40.578125 39.3125 
Q 47.65625 37.796875 51.625 33 
Q 55.609375 28.21875 55.609375 21.1875 
Q 55.609375 10.40625 48.1875 4.484375 
Q 40.765625 -1.421875 27.09375 -1.421875 
Q 22.515625 -1.421875 17.65625 -0.515625 
Q 12.796875 0.390625 7.625 2.203125 
L 7.625 11.71875 
Q 11.71875 9.328125 16.59375 8.109375 
Q 21.484375 6.890625 26.8125 6.890625 
Q 36.078125 6.890625 40.9375 10.546875 
Q 45.796875 14.203125 45.796875 21.1875 
Q 45.796875 27.640625 41.28125 31.265625 
Q 36.765625 34.90625 28.71875 34.90625 
L 20.21875 34.90625 
L 20.21875 43.015625 
L 29.109375 43.015625 
Q 36.375 43.015625 40.234375 45.921875 
Q 44.09375 48.828125 44.09375 54.296875 
Q 44.09375 59.90625 40.109375 62.90625 
Q 36.140625 65.921875 28.71875 65.921875 
Q 24.65625 65.921875 20.015625 65.03125 
Q 15.375 64.15625 9.8125 62.3125 
L 9.8125 71.09375 
Q 15.4375 72.65625 20.34375 73.4375 
Q 25.25 74.21875 29.59375 74.21875 
Q 40.828125 74.21875 47.359375 69.109375 
Q 53.90625 64.015625 53.90625 55.328125 
Q 53.90625 49.265625 50.4375 45.09375 
Q 46.96875 40.921875 40.578125 39.3125 
z
" id="DejaVuSans-51"/>
       <path d="M 31.78125 66.40625 
Q 24.171875 66.40625 20.328125 58.90625 
Q 16.5 51.421875 16.5 36.375 
Q 16.5 21.390625 20.328125 13.890625 
Q 24.171875 6.390625 31.78125 6.390625 
Q 39.453125 6.390625 43.28125 13.890625 
Q 47.125 21.390625 47.125 36.375 
Q 47.125 51.421875 43.28125 58.90625 
Q 39.453125 66.40625 31.78125 66.40625 
z
M 31.78125 74.21875 
Q 44.046875 74.21875 50.515625 64.515625 
Q 56.984375 54.828125 56.984375 36.375 
Q 56.984375 17.96875 50.515625 8.265625 
Q 44.046875 -1.421875 31.78125 -1.421875 
Q 19.53125 -1.421875 13.0625 8.265625 
Q 6.59375 17.96875 6.59375 36.375 
Q 6.59375 54.828125 13.0625 64.515625 
Q 19.53125 74.21875 31.78125 74.21875 
z
" id="DejaVuSans-48"/>
      </defs>
      <g transform="translate(51.732531 259.936719)scale(0.14 -0.14)">
       <use xlink:href="#DejaVuSans-8722"/>
       <use x="83.789062" xlink:href="#DejaVuSans-51"/>
       <use x="147.412109" xlink:href="#DejaVuSans-48"/>
      </g>
     </g>
    </g>
    <g id="xtick_2">
     <g id="line2d_3">
      <path clip-path="url(#pe2d607a9c8)" d="M 129.145813 245.798906 
L 129.145813 12.518906 
" style="fill:none;stroke:#cbcbcb;"/>
     </g>
     <g id="line2d_4"/>
     <g id="text_2">
      <!-- −20 -->
      <defs>
       <path d="M 19.1875 8.296875 
L 53.609375 8.296875 
L 53.609375 0 
L 7.328125 0 
L 7.328125 8.296875 
Q 12.9375 14.109375 22.625 23.890625 
Q 32.328125 33.6875 34.8125 36.53125 
Q 39.546875 41.84375 41.421875 45.53125 
Q 43.3125 49.21875 43.3125 52.78125 
Q 43.3125 58.59375 39.234375 62.25 
Q 35.15625 65.921875 28.609375 65.921875 
Q 23.96875 65.921875 18.8125 64.3125 
Q 13.671875 62.703125 7.8125 59.421875 
L 7.8125 69.390625 
Q 13.765625 71.78125 18.9375 73 
Q 24.125 74.21875 28.421875 74.21875 
Q 39.75 74.21875 46.484375 68.546875 
Q 53.21875 62.890625 53.21875 53.421875 
Q 53.21875 48.921875 51.53125 44.890625 
Q 49.859375 40.875 45.40625 35.40625 
Q 44.1875 33.984375 37.640625 27.21875 
Q 31.109375 20.453125 19.1875 8.296875 
z
" id="DejaVuSans-50"/>
      </defs>
      <g transform="translate(114.372531 259.936719)scale(0.14 -0.14)">
       <use xlink:href="#DejaVuSans-8722"/>
       <use x="83.789062" xlink:href="#DejaVuSans-50"/>
       <use x="147.412109" xlink:href="#DejaVuSans-48"/>
      </g>
     </g>
    </g>
    <g id="xtick_3">
     <g id="line2d_5">
      <path clip-path="url(#pe2d607a9c8)" d="M 191.785813 245.798906 
L 191.785813 12.518906 
" style="fill:none;stroke:#cbcbcb;"/>
     </g>
     <g id="line2d_6"/>
     <g id="text_3">
      <!-- −10 -->
      <defs>
       <path d="M 12.40625 8.296875 
L 28.515625 8.296875 
L 28.515625 63.921875 
L 10.984375 60.40625 
L 10.984375 69.390625 
L 28.421875 72.90625 
L 38.28125 72.90625 
L 38.28125 8.296875 
L 54.390625 8.296875 
L 54.390625 0 
L 12.40625 0 
z
" id="DejaVuSans-49"/>
      </defs>
      <g transform="translate(177.012531 259.936719)scale(0.14 -0.14)">
       <use xlink:href="#DejaVuSans-8722"/>
       <use x="83.789062" xlink:href="#DejaVuSans-49"/>
       <use x="147.412109" xlink:href="#DejaVuSans-48"/>
      </g>
     </g>
    </g>
    <g id="xtick_4">
     <g id="line2d_7">
      <path clip-path="url(#pe2d607a9c8)" d="M 254.425813 245.798906 
L 254.425813 12.518906 
" style="fill:none;stroke:#cbcbcb;"/>
     </g>
     <g id="line2d_8"/>
     <g id="text_4">
      <!-- 0 -->
      <g transform="translate(249.972062 259.936719)scale(0.14 -0.14)">
       <use xlink:href="#DejaVuSans-48"/>
      </g>
     </g>
    </g>
    <g id="xtick_5">
     <g id="line2d_9">
      <path clip-path="url(#pe2d607a9c8)" d="M 317.065812 245.798906 
L 317.065812 12.518906 
" style="fill:none;stroke:#cbcbcb;"/>
     </g>
     <g id="line2d_10"/>
     <g id="text_5">
      <!-- 10 -->
      <g transform="translate(308.158312 259.936719)scale(0.14 -0.14)">
       <use xlink:href="#DejaVuSans-49"/>
       <use x="63.623047" xlink:href="#DejaVuSans-48"/>
      </g>
     </g>
    </g>
    <g id="xtick_6">
     <g id="line2d_11">
      <path clip-path="url(#pe2d607a9c8)" d="M 379.705812 245.798906 
L 379.705812 12.518906 
" style="fill:none;stroke:#cbcbcb;"/>
     </g>
     <g id="line2d_12"/>
     <g id="text_6">
      <!-- 20 -->
      <g transform="translate(370.798312 259.936719)scale(0.14 -0.14)">
       <use xlink:href="#DejaVuSans-50"/>
       <use x="63.623047" xlink:href="#DejaVuSans-48"/>
      </g>
     </g>
    </g>
    <g id="xtick_7">
     <g id="line2d_13">
      <path clip-path="url(#pe2d607a9c8)" d="M 442.345812 245.798906 
L 442.345812 12.518906 
" style="fill:none;stroke:#cbcbcb;"/>
     </g>
     <g id="line2d_14"/>
     <g id="text_7">
      <!-- 30 -->
      <g transform="translate(433.438312 259.936719)scale(0.14 -0.14)">
       <use xlink:href="#DejaVuSans-51"/>
       <use x="63.623047" xlink:href="#DejaVuSans-48"/>
      </g>
     </g>
    </g>
    <g id="text_8">
     <!-- w0 -->
     <defs>
      <path d="M 4.203125 54.6875 
L 13.1875 54.6875 
L 24.421875 12.015625 
L 35.59375 54.6875 
L 46.1875 54.6875 
L 57.421875 12.015625 
L 68.609375 54.6875 
L 77.59375 54.6875 
L 63.28125 0 
L 52.6875 0 
L 40.921875 44.828125 
L 29.109375 0 
L 18.5 0 
z
" id="DejaVuSans-119"/>
     </defs>
     <g transform="translate(242.211688 285.613656)scale(0.168 -0.168)">
      <use xlink:href="#DejaVuSans-119"/>
      <use x="81.787109" xlink:href="#DejaVuSans-48"/>
     </g>
    </g>
   </g>
   <g id="matplotlib.axis_2">
    <g id="ytick_1">
     <g id="line2d_15">
      <path clip-path="url(#pe2d607a9c8)" d="M 66.505813 245.798906 
L 442.345812 245.798906 
" style="fill:none;stroke:#cbcbcb;"/>
     </g>
     <g id="line2d_16"/>
     <g id="text_9">
      <!-- −30 -->
      <g transform="translate(33.45925 251.117813)scale(0.14 -0.14)">
       <use xlink:href="#DejaVuSans-8722"/>
       <use x="83.789062" xlink:href="#DejaVuSans-51"/>
       <use x="147.412109" xlink:href="#DejaVuSans-48"/>
      </g>
     </g>
    </g>
    <g id="ytick_2">
     <g id="line2d_17">
      <path clip-path="url(#pe2d607a9c8)" d="M 66.505813 206.918906 
L 442.345812 206.918906 
" style="fill:none;stroke:#cbcbcb;"/>
     </g>
     <g id="line2d_18"/>
     <g id="text_10">
      <!-- −20 -->
      <g transform="translate(33.45925 212.237813)scale(0.14 -0.14)">
       <use xlink:href="#DejaVuSans-8722"/>
       <use x="83.789062" xlink:href="#DejaVuSans-50"/>
       <use x="147.412109" xlink:href="#DejaVuSans-48"/>
      </g>
     </g>
    </g>
    <g id="ytick_3">
     <g id="line2d_19">
      <path clip-path="url(#pe2d607a9c8)" d="M 66.505813 168.038906 
L 442.345812 168.038906 
" style="fill:none;stroke:#cbcbcb;"/>
     </g>
     <g id="line2d_20"/>
     <g id="text_11">
      <!-- −10 -->
      <g transform="translate(33.45925 173.357812)scale(0.14 -0.14)">
       <use xlink:href="#DejaVuSans-8722"/>
       <use x="83.789062" xlink:href="#DejaVuSans-49"/>
       <use x="147.412109" xlink:href="#DejaVuSans-48"/>
      </g>
     </g>
    </g>
    <g id="ytick_4">
     <g id="line2d_21">
      <path clip-path="url(#pe2d607a9c8)" d="M 66.505813 129.158906 
L 442.345812 129.158906 
" style="fill:none;stroke:#cbcbcb;"/>
     </g>
     <g id="line2d_22"/>
     <g id="text_12">
      <!-- 0 -->
      <g transform="translate(54.098313 134.477812)scale(0.14 -0.14)">
       <use xlink:href="#DejaVuSans-48"/>
      </g>
     </g>
    </g>
    <g id="ytick_5">
     <g id="line2d_23">
      <path clip-path="url(#pe2d607a9c8)" d="M 66.505813 90.278906 
L 442.345812 90.278906 
" style="fill:none;stroke:#cbcbcb;"/>
     </g>
     <g id="line2d_24"/>
     <g id="text_13">
      <!-- 10 -->
      <g transform="translate(45.190813 95.597813)scale(0.14 -0.14)">
       <use xlink:href="#DejaVuSans-49"/>
       <use x="63.623047" xlink:href="#DejaVuSans-48"/>
      </g>
     </g>
    </g>
    <g id="ytick_6">
     <g id="line2d_25">
      <path clip-path="url(#pe2d607a9c8)" d="M 66.505813 51.398906 
L 442.345812 51.398906 
" style="fill:none;stroke:#cbcbcb;"/>
     </g>
     <g id="line2d_26"/>
     <g id="text_14">
      <!-- 20 -->
      <g transform="translate(45.190813 56.717812)scale(0.14 -0.14)">
       <use xlink:href="#DejaVuSans-50"/>
       <use x="63.623047" xlink:href="#DejaVuSans-48"/>
      </g>
     </g>
    </g>
    <g id="ytick_7">
     <g id="line2d_27">
      <path clip-path="url(#pe2d607a9c8)" d="M 66.505813 12.518906 
L 442.345812 12.518906 
" style="fill:none;stroke:#cbcbcb;"/>
     </g>
     <g id="line2d_28"/>
     <g id="text_15">
      <!-- 30 -->
      <g transform="translate(45.190813 17.837812)scale(0.14 -0.14)">
       <use xlink:href="#DejaVuSans-51"/>
       <use x="63.623047" xlink:href="#DejaVuSans-48"/>
      </g>
     </g>
    </g>
    <g id="text_16">
     <!-- w1 -->
     <g transform="translate(19.965375 141.373031)rotate(-90)scale(0.168 -0.168)">
      <use xlink:href="#DejaVuSans-119"/>
      <use x="81.787109" xlink:href="#DejaVuSans-49"/>
     </g>
    </g>
   </g>
   <g id="LineCollection_1">
    <path clip-path="url(#pe2d607a9c8)" d="M 249.78175 108.661355 
L 248.927294 102.060724 
L 248.66913 99.704361 
L 246.25512 54.933452 
L 246.010509 47.864361 
L 246.011819 45.507997 
L 246.187964 43.151634 
L 247.488326 40.79527 
L 248.731267 40.336957 
L 249.704268 50.220724 
L 250.621263 57.289815 
L 251.462258 62.002543 
L 252.575004 66.71527 
L 253.841781 80.853452 
L 254.932484 90.278906 
L 255.636366 94.991634 
L 256.397707 99.704361 
L 257.686465 116.198906 
L 258.828311 127.980724 
L 259.72869 135.049815 
L 260.120358 137.53897 
L 262.214847 170.39527 
L 263.165587 182.177088 
L 263.941257 189.246179 
L 264.244174 201.027997 
L 264.273822 210.453452 
L 264.143445 215.166179 
L 263.916722 218.808516 
L 263.272029 212.809815 
L 262.928346 210.453452 
L 262.465567 208.097088 
L 261.741596 205.740724 
L 260.120358 203.267618 
L 258.991091 191.602543 
L 258.09473 184.533452 
L 257.304306 179.820724 
L 256.287976 175.107997 
L 255.068813 160.969815 
L 254.052717 151.544361 
L 253.481064 147.265157 
L 253.481064 147.265157 
" style="fill:none;stroke:#440154;stroke-width:4;"/>
   </g>
   <g id="LineCollection_2">
    <path clip-path="url(#pe2d607a9c8)" d="M 254.844301 245.798906 
L 254.582705 243.442543 
L 254.316173 241.086179 
L 254.044411 238.729815 
L 253.767103 236.373452 
L 253.483906 234.017088 
L 253.194448 231.660724 
L 252.898327 229.304361 
L 252.660373 227.455224 
" style="fill:none;stroke:#450457;stroke-width:4;"/>
    <path clip-path="url(#pe2d607a9c8)" d="M 247.632788 179.319323 
L 247.452914 177.464361 
L 247.22115 175.107997 
L 246.985943 172.751634 
L 246.747107 170.39527 
L 246.504443 168.038906 
L 246.257735 165.682543 
L 246.006753 163.326179 
L 245.751248 160.969815 
L 245.490952 158.613452 
L 245.225575 156.257088 
L 244.954803 153.900724 
L 244.934903 153.72784 
L 244.745901 151.544361 
L 244.53998 149.187997 
L 244.331774 146.831634 
L 244.121169 144.47527 
L 243.908048 142.118906 
L 243.692283 139.762543 
L 243.47374 137.406179 
L 243.252274 135.049815 
L 243.027729 132.693452 
L 242.799939 130.337088 
L 242.568726 127.980724 
L 242.333898 125.624361 
L 242.09525 123.267997 
L 241.852557 120.911634 
L 241.605581 118.55527 
L 241.354062 116.198906 
L 241.13854 114.211379 
L 241.108309 113.842543 
L 240.91588 111.486179 
L 240.721626 109.129815 
L 240.525458 106.773452 
L 240.327284 104.417088 
L 240.127005 102.060724 
L 239.924514 99.704361 
L 239.719698 97.347997 
L 239.512435 94.991634 
L 239.302597 92.63527 
L 239.090044 90.278906 
L 238.874627 87.922543 
L 238.656186 85.566179 
L 238.434547 83.209815 
L 238.209525 80.853452 
L 237.98092 78.497088 
L 237.748513 76.140724 
L 237.512072 73.784361 
L 237.342176 72.111229 
L 237.289997 71.427997 
L 237.110616 69.071634 
L 236.929797 66.71527 
L 236.747471 64.358906 
L 236.563563 62.002543 
L 236.377993 59.646179 
L 236.190676 57.289815 
L 236.001522 54.933452 
L 235.810432 52.577088 
L 235.617302 50.220724 
L 235.42202 47.864361 
L 235.224466 45.507997 
L 235.024509 43.151634 
L 234.822011 40.79527 
L 234.616821 38.438906 
L 234.408775 36.082543 
L 234.197697 33.726179 
L 233.983397 31.369815 
L 233.765665 29.013452 
L 233.545813 26.673073 
L 233.544695 26.657088 
L 233.381631 24.300724 
L 233.21762 21.944361 
L 233.052616 19.587997 
L 232.886567 17.231634 
L 232.719419 14.87527 
L 232.551114 12.518906 
" style="fill:none;stroke:#450457;stroke-width:4;"/>
    <path clip-path="url(#pe2d607a9c8)" d="M 256.087761 12.518906 
L 256.323994 14.316411 
L 256.378314 14.87527 
L 256.607589 17.231634 
L 256.840054 19.587997 
L 257.075873 21.944361 
L 257.315221 24.300724 
L 257.558285 26.657088 
L 257.754236 28.526585 
" style="fill:none;stroke:#450457;stroke-width:4;"/>
    <path clip-path="url(#pe2d607a9c8)" d="M 262.851624 76.655495 
L 263.053418 78.497088 
L 263.316522 80.853452 
L 263.584829 83.209815 
L 263.858658 85.566179 
L 263.916722 86.063466 
L 264.079906 87.922543 
L 264.288336 90.278906 
L 264.499134 92.63527 
L 264.712417 94.991634 
L 264.928308 97.347997 
L 265.146939 99.704361 
L 265.368449 102.060724 
L 265.592989 104.417088 
L 265.82072 106.773452 
L 266.051814 109.129815 
L 266.286458 111.486179 
L 266.524848 113.842543 
L 266.767201 116.198906 
L 267.013746 118.55527 
L 267.264733 120.911634 
L 267.520431 123.267997 
L 267.713085 125.018548 
L 267.763462 125.624361 
L 267.959059 127.980724 
L 268.156583 130.337088 
L 268.356128 132.693452 
L 268.55779 135.049815 
L 268.761675 137.406179 
L 268.967896 139.762543 
L 269.176572 142.118906 
L 269.387832 144.47527 
L 269.601811 146.831634 
L 269.818658 149.187997 
L 270.038531 151.544361 
L 270.261598 153.900724 
L 270.488042 156.257088 
L 270.718061 158.613452 
L 270.951866 160.969815 
L 271.189687 163.326179 
L 271.431772 165.682543 
L 271.509449 166.435355 
L 271.633848 168.038906 
L 271.817253 170.39527 
L 272.002225 172.751634 
L 272.188842 175.107997 
L 272.377184 177.464361 
L 272.567339 179.820724 
L 272.7594 182.177088 
L 272.953465 184.533452 
L 273.149642 186.889815 
L 273.348045 189.246179 
L 273.548795 191.602543 
L 273.752026 193.958906 
L 273.957877 196.31527 
L 274.166502 198.671634 
L 274.378067 201.027997 
L 274.592747 203.384361 
L 274.810738 205.740724 
L 275.032246 208.097088 
L 275.257501 210.453452 
L 275.305813 210.958609 
L 275.437524 212.809815 
L 275.605673 215.166179 
L 275.774938 217.522543 
L 275.945373 219.878906 
L 276.117041 222.23527 
L 276.290004 224.591634 
L 276.464331 226.947997 
L 276.640096 229.304361 
L 276.817379 231.660724 
L 276.996264 234.017088 
L 277.176842 236.373452 
L 277.359213 238.729815 
L 277.543483 241.086179 
L 277.729767 243.442543 
L 277.918189 245.798906 
" style="fill:none;stroke:#450457;stroke-width:4;"/>
   </g>
   <g id="LineCollection_3">
    <path clip-path="url(#pe2d607a9c8)" d="M 226.309508 245.798906 
L 226.063137 243.442543 
L 225.953085 242.392156 
L 225.827931 241.086179 
L 225.601676 238.729815 
L 225.374431 236.373452 
L 225.146181 234.017088 
L 224.916908 231.660724 
L 224.686597 229.304361 
L 224.455229 226.947997 
L 224.222787 224.591634 
L 223.989253 222.23527 
L 223.75461 219.878906 
L 223.518838 217.522543 
L 223.281918 215.166179 
L 223.04383 212.809815 
L 222.804554 210.453452 
L 222.564071 208.097088 
L 222.322358 205.740724 
L 222.156722 204.131339 
L 222.086368 203.384361 
L 221.864312 201.027997 
L 221.641316 198.671634 
L 221.417366 196.31527 
L 221.192446 193.958906 
L 220.966539 191.602543 
L 220.739631 189.246179 
L 220.511704 186.889815 
L 220.282741 184.533452 
L 220.052726 182.177088 
L 219.821639 179.820724 
L 219.589465 177.464361 
L 219.356183 175.107997 
L 219.121775 172.751634 
L 218.886221 170.39527 
L 218.649503 168.038906 
L 218.411599 165.682543 
L 218.360358 165.175272 
L 218.189429 163.326179 
L 217.97097 160.969815 
L 217.75161 158.613452 
L 217.531334 156.257088 
L 217.310128 153.900724 
L 217.087977 151.544361 
L 216.864865 149.187997 
L 216.640776 146.831634 
L 216.415693 144.47527 
L 216.189602 142.118906 
L 215.962483 139.762543 
L 215.734321 137.406179 
L 215.505097 135.049815 
L 215.274794 132.693452 
L 215.043392 130.337088 
L 214.810872 127.980724 
L 214.577216 125.624361 
L 214.563994 125.490948 
L 214.362384 123.267997 
L 214.147894 120.911634 
L 213.932545 118.55527 
L 213.716324 116.198906 
L 213.55398 114.43691 
" style="fill:none;stroke:#482475;stroke-width:4;"/>
    <path clip-path="url(#pe2d607a9c8)" d="M 208.190304 56.685615 
L 208.026827 54.933452 
L 207.806006 52.577088 
L 207.584194 50.220724 
L 207.361376 47.864361 
L 207.137534 45.507997 
L 206.971267 43.763197 
L 206.917935 43.151634 
L 206.712498 40.79527 
L 206.5063 38.438906 
L 206.299329 36.082543 
L 206.091572 33.726179 
L 205.883016 31.369815 
L 205.673648 29.013452 
L 205.463455 26.657088 
L 205.252423 24.300724 
L 205.040537 21.944361 
L 204.827785 19.587997 
L 204.61415 17.231634 
L 204.399618 14.87527 
L 204.184174 12.518906 
" style="fill:none;stroke:#482475;stroke-width:4;"/>
    <path clip-path="url(#pe2d607a9c8)" d="M 284.364505 12.518906 
L 284.597805 14.87527 
L 284.832207 17.231634 
L 285.067729 19.587997 
L 285.30439 21.944361 
L 285.54221 24.300724 
L 285.781208 26.657088 
L 286.021404 29.013452 
L 286.26282 31.369815 
L 286.505476 33.726179 
L 286.694903 35.55851 
L 286.744478 36.082543 
L 286.967417 38.438906 
L 287.191304 40.79527 
L 287.416156 43.151634 
L 287.641988 45.507997 
L 287.868817 47.864361 
L 288.096658 50.220724 
L 288.325528 52.577088 
L 288.555445 54.933452 
L 288.786426 57.289815 
L 289.018488 59.646179 
L 289.251651 62.002543 
L 289.485932 64.358906 
L 289.721351 66.71527 
L 289.957928 69.071634 
L 290.195682 71.427997 
L 290.434634 73.784361 
L 290.491267 74.342473 
L 290.658248 76.140724 
L 290.877678 78.497088 
L 291.09802 80.853452 
L 291.319287 83.209815 
L 291.541496 85.566179 
L 291.764662 87.922543 
L 291.9888 90.278906 
L 292.213926 92.63527 
L 292.440058 94.991634 
L 292.667211 97.347997 
L 292.895403 99.704361 
L 293.124651 102.060724 
L 293.354974 104.417088 
L 293.58639 106.773452 
L 293.818917 109.129815 
L 294.052574 111.486179 
L 294.287382 113.842543 
L 294.287631 113.845037 
L 294.502098 116.198906 
L 294.717647 118.55527 
L 294.934065 120.911634 
L 295.151368 123.267997 
L 295.369569 125.624361 
L 295.588683 127.980724 
L 295.808726 130.337088 
L 296.029711 132.693452 
L 296.251655 135.049815 
L 296.474575 137.406179 
L 296.698485 139.762543 
L 296.923404 142.118906 
L 297.091883 143.875968 
" style="fill:none;stroke:#482475;stroke-width:4;"/>
    <path clip-path="url(#pe2d607a9c8)" d="M 302.44721 201.627954 
L 302.602424 203.384361 
L 302.811457 205.740724 
L 303.021302 208.097088 
L 303.231973 210.453452 
L 303.443485 212.809815 
L 303.655851 215.166179 
L 303.869084 217.522543 
L 304.083201 219.878906 
L 304.298215 222.23527 
L 304.514143 224.591634 
L 304.730998 226.947997 
L 304.948799 229.304361 
L 305.16756 231.660724 
L 305.387299 234.017088 
L 305.608032 236.373452 
L 305.676722 237.106321 
L 305.8159 238.729815 
L 306.018295 241.086179 
L 306.221421 243.442543 
L 306.425293 245.798906 
" style="fill:none;stroke:#482475;stroke-width:4;"/>
   </g>
   <g id="LineCollection_4">
    <path clip-path="url(#pe2d607a9c8)" d="M 138.677056 245.798906 
L 138.636722 245.386546 
L 138.451824 243.442543 
L 138.227463 241.086179 
L 138.002791 238.729815 
L 137.777806 236.373452 
L 137.552506 234.017088 
L 137.32689 231.660724 
L 137.100957 229.304361 
L 136.874703 226.947997 
L 136.648129 224.591634 
L 136.421231 222.23527 
L 136.194009 219.878906 
L 136.029902 218.179511 
" style="fill:none;stroke:#fde725;stroke-width:4;"/>
    <path clip-path="url(#pe2d607a9c8)" d="M 129.599211 150.886109 
L 129.438248 149.187997 
L 129.21458 146.831634 
L 128.9906 144.47527 
L 128.766306 142.118906 
L 128.541697 139.762543 
L 128.31677 137.406179 
L 128.091524 135.049815 
L 127.865958 132.693452 
L 127.64007 130.337088 
L 127.413858 127.980724 
L 127.247631 126.250877 
L 127.189086 125.624361 
L 126.968879 123.267997 
L 126.748375 120.911634 
L 126.527573 118.55527 
L 126.306472 116.198906 
L 126.085069 113.842543 
L 125.863364 111.486179 
L 125.641354 109.129815 
L 125.419039 106.773452 
L 125.196416 104.417088 
L 124.973485 102.060724 
L 124.750242 99.704361 
L 124.526687 97.347997 
L 124.302818 94.991634 
L 124.078634 92.63527 
L 123.854132 90.278906 
L 123.629311 87.922543 
L 123.451267 86.058419 
L 123.405549 85.566179 
L 123.186701 83.209815 
L 122.967561 80.853452 
L 122.748128 78.497088 
L 122.5284 76.140724 
L 122.308376 73.784361 
L 122.088054 71.427997 
L 121.867432 69.071634 
L 121.64651 66.71527 
L 121.425285 64.358906 
L 121.203756 62.002543 
L 120.981921 59.646179 
L 120.759778 57.289815 
L 120.537327 54.933452 
L 120.314565 52.577088 
L 120.09149 50.220724 
L 119.868102 47.864361 
L 119.654903 45.618469 
L 119.644706 45.507997 
L 119.427256 43.151634 
L 119.20952 40.79527 
L 118.991495 38.438906 
L 118.77318 36.082543 
L 118.554574 33.726179 
L 118.335675 31.369815 
L 118.116481 29.013452 
L 117.896991 26.657088 
L 117.677204 24.300724 
L 117.457118 21.944361 
L 117.236731 19.587997 
L 117.016041 17.231634 
L 116.795048 14.87527 
L 116.573749 12.518906 
" style="fill:none;stroke:#fde725;stroke-width:4;"/>
    <path clip-path="url(#pe2d607a9c8)" d="M 371.977048 12.518906 
L 372.203949 14.87527 
L 372.431174 17.231634 
L 372.658725 19.587997 
L 372.886603 21.944361 
L 373.114811 24.300724 
L 373.34335 26.657088 
L 373.572221 29.013452 
L 373.801427 31.369815 
L 374.011267 33.524247 
L 374.030393 33.726179 
L 374.253528 36.082543 
L 374.47697 38.438906 
L 374.638376 40.138708 
" style="fill:none;stroke:#fde725;stroke-width:4;"/>
    <path clip-path="url(#pe2d607a9c8)" d="M 381.062253 107.432776 
L 381.225191 109.129815 
L 381.451757 111.486179 
L 381.603994 113.068132 
L 381.676464 113.842543 
L 381.897017 116.198906 
L 382.117867 118.55527 
L 382.339016 120.911634 
L 382.560466 123.267997 
L 382.782218 125.624361 
L 383.004275 127.980724 
L 383.226636 130.337088 
L 383.449305 132.693452 
L 383.672283 135.049815 
L 383.895571 137.406179 
L 384.119171 139.762543 
L 384.343085 142.118906 
L 384.567314 144.47527 
L 384.79186 146.831634 
L 385.016724 149.187997 
L 385.241909 151.544361 
L 385.400358 153.200892 
L 385.465452 153.900724 
L 385.684655 156.257088 
L 385.90415 158.613452 
L 386.123939 160.969815 
L 386.344025 163.326179 
L 386.564409 165.682543 
L 386.785091 168.038906 
L 387.006075 170.39527 
L 387.22736 172.751634 
L 387.44895 175.107997 
L 387.670845 177.464361 
L 387.893047 179.820724 
L 388.115558 182.177088 
L 388.338379 184.533452 
L 388.561512 186.889815 
L 388.784959 189.246179 
L 389.008721 191.602543 
L 389.196722 193.580079 
L 389.231743 193.958906 
L 389.449556 196.31527 
L 389.667657 198.671634 
L 389.886048 201.027997 
L 390.10473 203.384361 
L 390.323705 205.740724 
L 390.542974 208.097088 
L 390.762539 210.453452 
L 390.982401 212.809815 
L 391.202562 215.166179 
L 391.423024 217.522543 
L 391.643788 219.878906 
L 391.864855 222.23527 
L 392.086228 224.591634 
L 392.307907 226.947997 
L 392.529895 229.304361 
L 392.752193 231.660724 
L 392.974803 234.017088 
L 392.993085 234.210653 
L 393.191723 236.373452 
L 393.408391 238.729815 
L 393.625343 241.086179 
L 393.842582 243.442543 
L 394.060109 245.798906 
" style="fill:none;stroke:#fde725;stroke-width:4;"/>
   </g>
   <g id="patch_3">
    <path d="M 66.505813 245.798906 
L 66.505813 12.518906 
" style="fill:none;stroke:#f0f0f0;stroke-linecap:square;stroke-linejoin:miter;stroke-width:3;"/>
   </g>
   <g id="patch_4">
    <path d="M 442.345812 245.798906 
L 442.345812 12.518906 
" style="fill:none;stroke:#f0f0f0;stroke-linecap:square;stroke-linejoin:miter;stroke-width:3;"/>
   </g>
   <g id="patch_5">
    <path d="M 66.505813 245.798906 
L 442.345812 245.798906 
" style="fill:none;stroke:#f0f0f0;stroke-linecap:square;stroke-linejoin:miter;stroke-width:3;"/>
   </g>
   <g id="patch_6">
    <path d="M 66.505813 12.518906 
L 442.345812 12.518906 
" style="fill:none;stroke:#f0f0f0;stroke-linecap:square;stroke-linejoin:miter;stroke-width:3;"/>
   </g>
   <g id="text_17">
    <g clip-path="url(#pe2d607a9c8)">
     <!-- 100 -->
     <g style="fill:#440154;" transform="translate(245.882275 113.125419)rotate(-274.716103)scale(0.16 -0.16)">
      <use xlink:href="#DejaVuSans-49"/>
      <use x="63.623047" xlink:href="#DejaVuSans-48"/>
      <use x="127.246094" xlink:href="#DejaVuSans-48"/>
     </g>
    </g>
   </g>
   <g id="text_18">
    <g clip-path="url(#pe2d607a9c8)">
     <!-- 1000 -->
     <g style="fill:#450457;" transform="translate(243.63638 183.60194)rotate(-276.039962)scale(0.16 -0.16)">
      <use xlink:href="#DejaVuSans-49"/>
      <use x="63.623047" xlink:href="#DejaVuSans-48"/>
      <use x="127.246094" xlink:href="#DejaVuSans-48"/>
      <use x="190.869141" xlink:href="#DejaVuSans-48"/>
     </g>
    </g>
   </g>
   <g id="text_19">
    <g clip-path="url(#pe2d607a9c8)">
     <!-- 1000 -->
     <g style="fill:#450457;" transform="translate(253.902455 32.793307)rotate(-276.028034)scale(0.16 -0.16)">
      <use xlink:href="#DejaVuSans-49"/>
      <use x="63.623047" xlink:href="#DejaVuSans-48"/>
      <use x="127.246094" xlink:href="#DejaVuSans-48"/>
      <use x="190.869141" xlink:href="#DejaVuSans-48"/>
     </g>
    </g>
   </g>
   <g id="text_20">
    <g clip-path="url(#pe2d607a9c8)">
     <!-- 10000 -->
     <g style="fill:#482475;" transform="translate(204.068697 60.633761)rotate(-275.308149)scale(0.16 -0.16)">
      <use xlink:href="#DejaVuSans-49"/>
      <use x="63.623047" xlink:href="#DejaVuSans-48"/>
      <use x="127.246094" xlink:href="#DejaVuSans-48"/>
      <use x="190.869141" xlink:href="#DejaVuSans-48"/>
      <use x="254.492188" xlink:href="#DejaVuSans-48"/>
     </g>
    </g>
   </g>
   <g id="text_21">
    <g clip-path="url(#pe2d607a9c8)">
     <!-- 10000 -->
     <g style="fill:#482475;" transform="translate(293.02413 147.818745)rotate(-275.304152)scale(0.16 -0.16)">
      <use xlink:href="#DejaVuSans-49"/>
      <use x="63.623047" xlink:href="#DejaVuSans-48"/>
      <use x="127.246094" xlink:href="#DejaVuSans-48"/>
      <use x="190.869141" xlink:href="#DejaVuSans-48"/>
      <use x="254.492188" xlink:href="#DejaVuSans-48"/>
     </g>
    </g>
   </g>
   <g id="text_22">
    <g clip-path="url(#pe2d607a9c8)">
     <!-- 100000 -->
     <g style="fill:#fde725;" transform="translate(125.508259 154.551791)rotate(-275.457523)scale(0.16 -0.16)">
      <use xlink:href="#DejaVuSans-49"/>
      <use x="63.623047" xlink:href="#DejaVuSans-48"/>
      <use x="127.246094" xlink:href="#DejaVuSans-48"/>
      <use x="190.869141" xlink:href="#DejaVuSans-48"/>
      <use x="254.492188" xlink:href="#DejaVuSans-48"/>
      <use x="318.115234" xlink:href="#DejaVuSans-48"/>
     </g>
    </g>
   </g>
   <g id="text_23">
    <g clip-path="url(#pe2d607a9c8)">
     <!-- 100000 -->
     <g style="fill:#fde725;" transform="translate(370.567718 43.802087)rotate(-275.452711)scale(0.16 -0.16)">
      <use xlink:href="#DejaVuSans-49"/>
      <use x="63.623047" xlink:href="#DejaVuSans-48"/>
      <use x="127.246094" xlink:href="#DejaVuSans-48"/>
      <use x="190.869141" xlink:href="#DejaVuSans-48"/>
      <use x="254.492188" xlink:href="#DejaVuSans-48"/>
      <use x="318.115234" xlink:href="#DejaVuSans-48"/>
     </g>
    </g>
   </g>
  </g>
 </g>
 <defs>
  <clipPath id="pe2d607a9c8">
   <rect height="233.28" width="375.84" x="66.505813" y="12.518906"/>
  </clipPath>
 </defs>
</svg>
